<?xml version="1.0" encoding="utf-8"?>
<!-- Generator: Adobe Illustrator 24.0.0, SVG Export Plug-In . SVG Version: 6.00 Build 0)  -->
<svg version="1.1" id="Capa_1" xmlns="http://www.w3.org/2000/svg" xmlns:xlink="http://www.w3.org/1999/xlink" x="0px" y="0px"
	 viewBox="0 0 9140.3 4456" style="enable-background:new 0 0 9140.3 4456;" xml:space="preserve">
<style type="text/css">
	.st0{fill:#CCCCFF;}
	.st1{fill:#FFFFFF;}
	.st2{fill:none;}
	.st3{fill:#FFBE5A;}
	.st4{fill:#FD8810;}
	.st5{clip-path:url(#SVGID_2_);fill:#30357F;}
	.st6{fill:#30357F;}
	.st7{fill:#3E438C;}
	.st8{fill:#E8660F;}
	.st9{fill:#FFA823;}
	.st10{fill:#181B47;}
	.st11{clip-path:url(#SVGID_4_);fill:#30357F;}
	.st12{fill:#DE623C;}
	.st13{fill:#FFB23D;}
	.st14{fill:#FF3333;}
	.st15{fill:#FFFF00;}
	.st16{fill:#0000FF;}
</style>
<path class="st0" d="M6146,794.1h1059.1v820.8c-55.5,29.4-119,45.5-181.6,52.4c-99.7,11.1-200.3,1.9-300.6,4.4
	c-264.2,6.5-548.8,115.8-669.9,356c-32.9,65.2-52.7,138-96.5,196.1c-95.2,126.5-270.6,147.4-426.3,158.1
	c-102.1,7-204.1,14-306.2,21.1c-124.5,8.6-254,18.6-362,82.5c-108,63.9-221.3,268-181.4,388.8l-23.3,159.7l-84.3-13.9l-61.2-77.1
	c-176.9-178.1-263.9-618.4,19-743.5c282.9-125.2,589.5-306.1,544.4-567.6c-45.1-261.5,86.8-489.4,529.1-546.4
	C5964,1039.1,6105.5,859.8,6146,794.1L6146,794.1z"/>
<rect x="6736.2" y="2494.1" class="st1" width="468.9" height="220.1"/>
<rect x="0" y="-4.3" class="st0" width="9160" height="1812.6"/>
<path class="st0" d="M7205.1,794.1v820.8c-55.5,29.4-119,45.5-181.6,52.4c-99.7,11.1-200.3,1.9-300.6,4.4
	c-264.2,6.5-548.8,115.8-669.9,356c-32.9,65.2-52.7,138-96.5,196.1c-95.2,126.5-270.6,147.4-426.3,158.1
	c-102.1,7-204.1,14-306.2,21.1c-124.5,8.6-254,18.6-362,82.5c-108,63.9-231.9,217.5-192,338.4l-12.7,210.1l-84.3-13.9l-122.3-20.2
	c27.2-42.5-23.3-92.6-68.9-112.8c-124.5-55-265.7-69.8-398.5-41.6c-56.9,12.1-112.3,31.8-169.8,40.5
	c-189,28.7-390.3-76.3-478.5-249.6c-57.5-113.1-68.7-246.1-126.1-359.2c-56.9-112-159.3-198.9-277.5-235.5
	c-132.9-41-275.4-19.4-413.2-2.2c-137.8,17.2-283.6,28.6-409.9-30.3c-78.5-36.6-186.4-105.7-244.6-184.5V794.1H7205.1L7205.1,794.1z
	"/>
<rect x="1864.1" y="794.5" class="st2" width="5341" height="3654.3"/>
<path class="st3" d="M5690.7,817.1c0,0-97.3,27.9-140.5,80.1c-43.2,52.2-32.4,86.8-79.5,129.7c-42.9,39.4-117.8,65.2-169.8,152.5
	l175.1,213c30.5-81,17.4-115.5,96.8-217.8c62.5-80.5,67.2-134.4,65.5-209C5636.7,891,5690.7,817.1,5690.7,817.1L5690.7,817.1z"/>
<path class="st4" d="M5390.2,1307.7c-0.7-4.5-1.4-9-2.1-13.3c-6.9-41.8-12.2-74.8,31-96.6c87.7-44.3,119-119.9,139.7-194.9
	c23.8-86.2,93.2-142.4,117.6-163.3l14.2-22.4c-25.2,21.5-116.8,94-141.3,182.9c-20.1,72.8-50.2,145.9-134.6,188.6
	c-49.8,25.2-43,67-36.4,107.4L5390.2,1307.7L5390.2,1307.7z"/>
<path class="st4" d="M4473.5,2487.4c-32.2-49.6-33.7-111.2-4.6-185C4501.6,2374.6,4503.1,2436.3,4473.5,2487.4L4473.5,2487.4z"/>
<path class="st4" d="M4519.2,2216.9c32.7,72.3,34.2,133.9,4.6,185C4491.6,2352.4,4490.1,2290.7,4519.2,2216.9L4519.2,2216.9z"/>
<path class="st4" d="M4574.2,2267.5c-42.3-40.9-57.3-100.6-45.2-179.2C4576.7,2151.2,4591.8,2210.9,4574.2,2267.5L4574.2,2267.5z"/>
<path class="st4" d="M4604.8,2164.2c-42.3-40.9-57.3-100.6-45.2-179.2C4607.3,2047.9,4622.4,2107.7,4604.8,2164.2L4604.8,2164.2z"/>
<path class="st4" d="M4629.7,2054.4c-35.1-47.5-40.3-108.9-15.7-184.4C4650.9,1940.1,4656.2,2001.5,4629.7,2054.4L4629.7,2054.4z"/>
<path class="st4" d="M4670.2,1932c-29.8-40.3-34.3-92.5-13.3-156.7C4688.3,1834.9,4692.7,1887.1,4670.2,1932L4670.2,1932z"/>
<path class="st4" d="M4710.1,1843.2c-21.4-40.5-18.3-88.2,9.2-143C4739.5,1758.3,4736.5,1806,4710.1,1843.2L4710.1,1843.2z"/>
<path class="st4" d="M4754.2,1755.4c-14.6-41.1-5.2-85.5,28.1-133.1C4793.4,1679.8,4784,1724.1,4754.2,1755.4L4754.2,1755.4z"/>
<path class="st4" d="M4853.2,1572.8c-0.7,49.5-16.1,84.6-46.1,105.1C4802.1,1641.2,4817.4,1606.2,4853.2,1572.8L4853.2,1572.8z"/>
<path class="st4" d="M4916.7,1554.9c-7.8,40.7-25.5,67.2-53.3,79.5C4864.6,1603.4,4882.3,1576.9,4916.7,1554.9L4916.7,1554.9z"/>
<path class="st4" d="M4895,1637.1c12-28.5,37.8-46.7,77.6-54.8C4951.1,1617.4,4925.2,1635.7,4895,1637.1L4895,1637.1z"/>
<path class="st4" d="M4664.7,2422.2c-52.6,58.6-107.7,83.7-165.4,75.4C4531.7,2448.2,4586.9,2423.1,4664.7,2422.2L4664.7,2422.2z"/>
<path class="st4" d="M4549.2,2411.9c32.4-49.3,87.5-74.4,165.3-75.4C4661.9,2395.1,4606.8,2420.3,4549.2,2411.9L4549.2,2411.9z"/>
<path class="st4" d="M4716,2234.5c-37.5,69.7-85.2,107.5-143.1,113.3C4592.9,2292,4640.6,2254.3,4716,2234.5L4716,2234.5z"/>
<path class="st4" d="M4742.9,2138.5c-35.4,70.8-82,110.1-139.7,117.7C4621.5,2199.8,4668.1,2160.6,4742.9,2138.5L4742.9,2138.5z"/>
<path class="st4" d="M4773.7,2043.2c-35.4,70.8-82,110.1-139.7,117.7C4652.3,2104.6,4698.9,2065.3,4773.7,2043.2L4773.7,2043.2z"/>
<path class="st4" d="M4798.3,1944.9c-35,69.9-80.9,108.6-137.9,116.2C4678.6,2005.5,4724.5,1966.7,4798.3,1944.9L4798.3,1944.9z"/>
<path class="st4" d="M4839.6,1876.4c-42.9,52.2-89.2,75.8-138.8,70.9C4726.7,1903.8,4773,1880.2,4839.6,1876.4L4839.6,1876.4z"/>
<path class="st4" d="M4759.8,1788.1c31.8-26,73.9-31,126.2-14.9C4838.7,1801.1,4796.7,1806.1,4759.8,1788.1L4759.8,1788.1z"/>
<path class="st4" d="M4909.2,1718.4c-41.1,24.3-77.7,28.6-109.8,12.9C4827.1,1708.7,4863.7,1704.4,4909.2,1718.4L4909.2,1718.4z"/>
<path class="st4" d="M4849.9,1682.4c27.7-22.7,64.3-27,109.8-12.9C4918.6,1693.8,4882,1698.1,4849.9,1682.4L4849.9,1682.4z"/>
<path class="st4" d="M4490.3,2484.1c25.1-35.1,46.5-73.2,64.3-114.4c17.9-41.5,41.5-120.1,70.8-235.9
	c29.5-117.1,58.9-209.5,88-277.2c7.9-18.2,16.2-35.6,25-52c18.6-33.5,40.3-64.4,65.3-92.9c28.7-33.8,53.4-56.1,74.2-66.8l2-2.3
	c0.4-0.9,1.1-1.3,2.1-1.2c0.8-0.3,1.7-0.3,2.5,0.1c0.7,0.7,1.3,1.4,1.6,2.3c0.3,0.8,0.3,1.7-0.1,2.6l-0.8,1.8
	c-0.1,0.3-0.9,0.8-2.2,1.6l-0.2,0.4c-0.4,0.2-1,0.4-1.9,0.7c-20.1,10.6-44,32.4-71.9,65.1c-24.6,28.3-45.9,59.1-64.1,92.4
	c-9.1,16.3-17.4,33.3-25,50.9c-0.6,1.5-1.3,3.1-1.9,4.6c28.8-35.2,73.1-50,133-44.3c-45.1,40.7-89.4,55.5-133,44.3
	c-28.3,66.7-56.8,157.1-85.5,271.3c-29.7,116.7-53.5,195.8-71.3,237.2c-17.9,41.5-39.7,80-65.3,115.6c-25.8,35.8-43.3,58.2-52.6,67
	c-0.9,0.6-1.8,1-2.5,1c-1-0.1-1.9-0.5-2.6-1.2c-0.6-1-0.9-1.8-1-2.5c0.4-0.9,0.8-1.8,1.1-2.6c9.6-8.7,27.1-30.5,52.5-65.5
	L4490.3,2484.1L4490.3,2484.1z"/>
<path class="st4" d="M3405.4,2280.2c0,0,65-68.2,125.4-80.9c60.4-12.7,83,11.5,137.8-8.5c50.1-18.2,59.4-82.3,151.5-86.8
	l197.8,151.2c-77.6-10.5-142.2,74.9-258.2,95.5c-91.3,16.2-155.3-13.9-213.6-48.2C3487.8,2268.1,3405.4,2280.2,3405.4,2280.2
	L3405.4,2280.2z"/>
<path class="st3" d="M3926.5,2248.1c-3.3-2.5-6.5-5.1-9.6-7.6c-30.1-24.1-53.8-43.1-90.2-17c-73.8,53-147.4,45.5-216,29.5
	c-78.7-18.4-153.9,14.2-181.2,25.3l-24,1.8c28.1-11.4,126-55.1,207.2-36.2c66.5,15.5,137.7,22.9,208.7-28.1c42-30.1,72-6,101.1,17.3
	L3926.5,2248.1L3926.5,2248.1z"/>
<path class="st4" d="M5423.3,902.1c0,0,19,76.9,1.5,126.1c-17.5,49.3-44.1,55.2-54.1,103.7c-9.2,44.2,31.3,79-5.7,147.7l-191,77.6
	c41.1-51.7,9.9-135.7,46.2-228.8c28.5-73.3,77.3-106.5,126.5-133.9C5395.8,967.1,5423.3,902.1,5423.3,902.1L5423.3,902.1z"/>
<path class="st3" d="M5218.7,1293.9c3.2-1.3,6.4-2.5,9.5-3.7c29.9-11.3,53.3-20.3,51.1-58c-4.6-76.6,32.6-126.8,73.6-169.5
	c47-49.1,57.1-117.8,61.4-142.4l9.2-18.2c-4.4,25.3-16.6,115.4-65.1,166c-39.7,41.5-75.8,89.9-71.4,163.6
	c2.6,43.5-27.2,54.8-56,65.8L5218.7,1293.9L5218.7,1293.9z"/>
<rect x="1864.1" y="794.5" class="st2" width="5341" height="3654.3"/>
<path class="st3" d="M3323.5,1866.7c0,0,108.2-44.9,183.7-28.5c75.5,16.4,89.7,55.8,162.4,60.9c66.4,4.9,152.7-25.7,260.6,16.4
	l-12.5,321.1c-83.8-51.9-95.8-92.9-239.1-128.9c-112.7-28.3-154.4-74.2-204.5-143.5C3424,1895.1,3323.5,1866.7,3323.5,1866.7
	L3323.5,1866.7z"/>
<path class="st4" d="M3937.4,2097.3c-2.5-4.6-4.9-9.2-7.3-13.7c-22.7-43.1-40.6-77.1-95.2-65.8c-110.8,23-191.6-23.5-262.5-77
	c-81.3-61.5-183.6-62.6-220.4-64l-28.5-10.2c37.8,1.4,171.7,1.4,255.7,64.8c68.7,52,146.8,97,253.4,74.9c63-13,85.6,30.1,107.6,71.7
	L3937.4,2097.3L3937.4,2097.3z"/>
<path class="st4" d="M5283.4,2185.9c24.2-54.1,74.7-87.9,151.4-101.6C5391.9,2150.9,5341.4,2184.7,5283.4,2185.9L5283.4,2185.9z"/>
<path class="st4" d="M5532.2,2083c-42.8,66.5-93.3,100.3-151.3,101.6C5405.1,2130.4,5455.6,2096.6,5532.2,2083L5532.2,2083z"/>
<path class="st4" d="M5519.2,2157.4c11.7-58.3,53.4-102.9,125.1-133.7C5617.2,2098.3,5575.5,2142.8,5519.2,2157.4L5519.2,2157.4z"/>
<path class="st4" d="M5621.2,2129.5c11.7-58.3,53.4-102.8,125.1-133.7C5719.2,2070.4,5677.5,2115,5621.2,2129.5L5621.2,2129.5z"/>
<path class="st4" d="M5725.6,2093.2c20.9-55.5,69.3-92.5,144.9-110.9C5831.8,2051.4,5783.5,2088.3,5725.6,2093.2L5725.6,2093.2z"/>
<path class="st4" d="M5848.7,2063.9c17.8-47.2,58.9-78.6,123.2-94.2C5938.9,2028.3,5897.9,2059.7,5848.7,2063.9L5848.7,2063.9z"/>
<path class="st4" d="M5943.5,2051.7c22.4-40,63.6-62.5,123.7-67.5C6029.6,2032.4,5988.4,2054.9,5943.5,2051.7L5943.5,2051.7z"/>
<path class="st4" d="M6039.8,2043.7c26.5-34.4,68.3-49.6,125.4-45.8C6123.3,2037.9,6081.5,2053.1,6039.8,2043.7L6039.8,2043.7z"/>
<path class="st4" d="M6243.8,2033.4c-41.5,25.5-78.7,30.6-111.7,15.3C6160,2025,6197.2,2019.9,6243.8,2033.4L6243.8,2033.4z"/>
<path class="st4" d="M6292.1,2079c-37.9,14.7-69.3,13.2-94.2-4.4C6224.3,2059.4,6255.7,2060.8,6292.1,2079L6292.1,2079z"/>
<path class="st4" d="M6212.4,2103.5c30-4.6,58.8,8.2,86.5,38.5C6258.3,2141.9,6229.5,2129.1,6212.4,2103.5L6212.4,2103.5z"/>
<path class="st4" d="M5438.4,2317.6c-76.4-14.8-126.4-49.4-149.8-103.9C5346.6,2215.9,5396.5,2250.5,5438.4,2317.6L5438.4,2317.6z"
	/>
<path class="st4" d="M5386,2211.8c58,2.1,108,36.7,149.8,103.9C5459.4,2300.9,5409.4,2266.3,5386,2211.8L5386,2211.8z"/>
<path class="st4" d="M5621.5,2263.1c-77.7,4.2-134.3-17.3-169.7-64.5C5508.7,2186.6,5565.2,2208.1,5621.5,2263.1L5621.5,2263.1z"/>
<path class="st4" d="M5715.4,2235.9c-77.5,6.6-134.7-13.2-171.5-59.2C5600.4,2162.8,5657.6,2182.6,5715.4,2235.9L5715.4,2235.9z"/>
<path class="st4" d="M5810.8,2212.4c-77.5,6.6-134.7-13.2-171.5-59.2C5695.8,2139.3,5753,2159.1,5810.8,2212.4L5810.8,2212.4z"/>
<path class="st4" d="M5905.6,2181.9c-76.5,6.5-132.9-13-169.3-58.5C5792.1,2109.9,5848.5,2129.4,5905.6,2181.9L5905.6,2181.9z"/>
<path class="st4" d="M5984.3,2181.7c-66-9.7-110-37.5-132.1-83.2C5902,2098.1,5946,2125.8,5984.3,2181.7L5984.3,2181.7z"/>
<path class="st4" d="M6015.6,2065.8c38.4,13.9,64.7,47.8,78.9,101.7C6046.4,2141.2,6020.1,2107.3,6015.6,2065.8L6015.6,2065.8z"/>
<path class="st4" d="M6152.3,2158.8c-41.9-22.9-64.8-52.4-68.7-88.5C6117,2082.4,6139.9,2111.9,6152.3,2158.8L6152.3,2158.8z"/>
<path class="st4" d="M6150.9,2088.3c33.4,12.1,56.3,41.6,68.7,88.5C6177.7,2153.9,6154.8,2124.4,6150.9,2088.3L6150.9,2088.3z"/>
<path class="st4" d="M5294.9,2198.8c42.4,3.3,85.4,1.8,129-4.5c43.9-6.3,121.7-27.3,233.4-63c112.9-36.1,205.2-59.4,276.8-69.7
	c19.3-2.8,38.1-4.7,56.4-5.7c37.6-1.5,74.8,1,111.7,7.7c43.2,7.1,74.8,16.8,94.6,29.2l2.9,0.6c0.9-0.1,1.6,0.3,2.1,1.2
	c0.7,0.5,1.1,1.3,1.3,2.3c-0.2,1-0.5,1.9-1.1,2.6c-0.5,0.7-1.3,1.2-2.2,1.3l-1.9,0.3c-0.3,0-1.2-0.3-2.5-1.1l-0.5,0.1
	c-0.4-0.3-0.9-0.7-1.6-1.2c-19.4-11.8-50.1-21.2-92.1-28.1c-36.5-6.4-73.3-8.7-110.6-6.9c-18.3,0.7-36.8,2.4-55.5,5.1
	c-1.6,0.2-3.2,0.5-4.8,0.7c44.5,6.4,80.1,37.1,107,92.2c-57.6-17.7-93.3-48.4-107-92.2c-70.4,10.6-160.5,33.5-270.6,68.8
	c-112.6,35.8-190.9,56.8-234.8,63.2c-43.9,6.3-87.4,7.8-130.5,4.2c-43.4-3.5-71.2-6.9-83.4-10.4c-1-0.5-1.7-1-2.1-1.6
	c-0.4-0.9-0.6-1.9-0.4-2.9c0.5-1,1-1.8,1.6-2.2c0.9-0.1,1.9-0.3,2.8-0.4c12.3,3.7,39.6,7.4,82.1,11L5294.9,2198.8L5294.9,2198.8z"/>
<path class="st3" d="M5009.4,2408.5c-18.6-50.7-7.6-105.7,33-165.1C5056.9,2314.4,5045.9,2369.4,5009.4,2408.5L5009.4,2408.5z"/>
<path class="st3" d="M5104.1,2178.2c14.5,70.9,3.5,126-33,165.1C5052.5,2292.5,5063.5,2237.5,5104.1,2178.2L5104.1,2178.2z"/>
<path class="st3" d="M5142.7,2234.6c-29.3-45.1-30.7-101.3-4.1-168.4C5168.3,2131.9,5169.7,2188.1,5142.7,2234.6L5142.7,2234.6z"/>
<path class="st3" d="M5190.6,2149.4c-29.3-45.1-30.7-101.3-4.2-168.4C5216.1,2046.7,5217.5,2102.9,5190.6,2149.4L5190.6,2149.4z"/>
<path class="st3" d="M5234.7,2057.1c-21.6-49.5-13.9-105.1,23-166.8C5276.5,1960.2,5268.8,2015.8,5234.7,2057.1L5234.7,2057.1z"/>
<path class="st3" d="M5295.2,1957.1c-18.4-42-11.8-89.3,19.6-141.8C5330.7,1874.7,5324.2,1922,5295.2,1957.1L5295.2,1957.1z"/>
<path class="st3" d="M5348.4,1886.7c-10.9-40.4,1.4-82.1,36.8-124.9C5391.5,1817.5,5379.2,1859.1,5348.4,1886.7L5348.4,1886.7z"/>
<path class="st3" d="M5405.1,1818c-4.7-39.6,12.5-76.9,51.6-112.1C5455.1,1759.1,5437.9,1796.5,5405.1,1818L5405.1,1818z"/>
<path class="st3" d="M5529.6,1676.7c-10.5,43.8-31.2,71.6-62,83.5C5470.5,1726.7,5491.2,1698.9,5529.6,1676.7L5529.6,1676.7z"/>
<path class="st3" d="M5589.4,1674.1c-15.1,34.5-36.1,54.2-63.2,59.4C5533.5,1706.3,5554.6,1686.5,5589.4,1674.1L5589.4,1674.1z"/>
<path class="st3" d="M5553.7,1742.5c16.3-22.7,42.9-33.5,79.8-32.3C5607.4,1736.9,5580.8,1747.6,5553.7,1742.5L5553.7,1742.5z"/>
<path class="st3" d="M5192,2390.7c-58.4,41-112.4,51.7-161.8,32.2C5068.8,2386,5122.8,2375.3,5192,2390.7L5192,2390.7z"/>
<path class="st3" d="M5091.6,2357.4c38.6-37,92.5-47.7,161.8-32.2C5195,2366.2,5141,2376.9,5091.6,2357.4L5091.6,2357.4z"/>
<path class="st3" d="M5275.2,2235c-47.2,54-97.1,77.5-149.7,70.6C5154.4,2260.3,5204.3,2236.7,5275.2,2235L5275.2,2235z"/>
<path class="st3" d="M5318.3,2155.4c-45.6,55.4-94.8,80.5-147.5,75.2C5198.3,2184.5,5247.5,2159.4,5318.3,2155.4L5318.3,2155.4z"/>
<path class="st3" d="M5364.7,2077.4c-45.6,55.4-94.8,80.5-147.5,75.2C5244.7,2106.4,5293.9,2081.3,5364.7,2077.4L5364.7,2077.4z"/>
<path class="st3" d="M5406.3,1995.3c-45,54.7-93.5,79.4-145.6,74.2C5287.9,2024,5336.4,1999.3,5406.3,1995.3L5406.3,1995.3z"/>
<path class="st3" d="M5456.7,1943.2c-48.5,37.3-94.3,48.6-137.3,33.8C5351,1943.9,5396.8,1932.6,5456.7,1943.2L5456.7,1943.2z"/>
<path class="st3" d="M5403.6,1848.2c33.4-16.4,71.7-12,114.9,13.2C5470.9,1876.3,5432.6,1871.9,5403.6,1848.2L5403.6,1848.2z"/>
<path class="st3" d="M5550,1817.7c-41.3,12.9-74.7,9.1-100-11.5C5479.1,1791.9,5512.5,1795.7,5550,1817.7L5550,1817.7z"/>
<path class="st3" d="M5504.7,1773.3c29.1-14.3,62.4-10.5,100,11.5C5563.3,1797.8,5530,1793.9,5504.7,1773.3L5504.7,1773.3z"/>
<path class="st3" d="M5024.9,2409.2c29.3-25.9,56-55.2,80-88c24.2-33.1,60.9-97.9,110.1-194.5c49.7-97.7,94.2-173.5,133.7-227.4
	c10.6-14.5,21.5-28.2,32.6-40.9c23.2-25.8,48.7-48.7,76.6-68.7c32.2-24,58.6-38.6,79.2-43.7l2.2-1.6c0.5-0.7,1.2-0.9,2.1-0.6
	c0.8-0.1,1.5,0.1,2.2,0.6c0.5,0.8,0.8,1.6,0.9,2.4c0.1,0.8-0.1,1.6-0.6,2.3l-1,1.4c-0.2,0.2-0.9,0.6-2.3,1l-0.2,0.4
	c-0.4,0.1-1,0.1-1.8,0.3c-19.9,5.2-45.5,19.5-76.9,42.7c-27.5,19.9-52.6,42.8-75.4,68.5c-11.3,12.5-22.1,25.9-32.4,39.9
	c-0.9,1.2-1.8,2.4-2.6,3.6c32.6-25.2,74.9-29,126.9-11.4c-48.1,26.7-90.4,30.5-126.9,11.4c-38.5,53.2-81.9,127.4-130.3,222.7
	c-49.7,97.3-86.7,162.4-110.9,195.5c-24.2,33.1-51.2,62.7-81.1,88.8c-30,26.4-50.1,42.5-60.1,48.4c-1,0.4-1.8,0.5-2.4,0.4
	c-0.9-0.3-1.5-0.8-2.1-1.6c-0.4-1-0.5-1.8-0.4-2.5c0.5-0.7,1-1.4,1.6-2.1c10.2-5.7,30.1-21.4,59.7-47.1L5024.9,2409.2L5024.9,2409.2
	z"/>
<path class="st3" d="M3730,2719.1c-54.4,17.2-111.5,1.7-171.2-46.5C3634.2,2661.1,3691.3,2676.6,3730,2719.1L3730,2719.1z"/>
<path class="st3" d="M3494.2,2600.8c75.4-11.5,132.4,4.1,171.2,46.5C3611,2664.5,3554,2649,3494.2,2600.8L3494.2,2600.8z"/>
<path class="st3" d="M3555.8,2561.9c-49.2,29.3-108.2,27.3-177-6C3449.7,2527.5,3508.7,2529.4,3555.8,2561.9L3555.8,2561.9z"/>
<path class="st3" d="M3469.4,2504.1c-49.2,29.3-108.2,27.3-177-6C3363.3,2469.6,3422.3,2471.6,3469.4,2504.1L3469.4,2504.1z"/>
<path class="st3" d="M3375.4,2449.9c-53.3,20.6-111.1,8.7-173.6-35.7C3276.3,2398.1,3334.2,2410,3375.4,2449.9L3375.4,2449.9z"/>
<path class="st3" d="M3274.2,2377.4c-45.3,17.5-94.4,7.4-147.5-30.4C3190,2333.3,3239.1,2343.4,3274.2,2377.4L3274.2,2377.4z"/>
<path class="st3" d="M3203.6,2314.6c-43.1,9.4-86.1-6.7-128.8-48.2C3133.7,2263,3176.7,2279.1,3203.6,2314.6L3203.6,2314.6z"/>
<path class="st3" d="M3135.1,2248.1c-41.8,2.7-80-18.6-114.5-63.6C3076.5,2189.6,3114.6,2210.8,3135.1,2248.1L3135.1,2248.1z"/>
<path class="st3" d="M2994.7,2102.8c45.3,14.3,73.2,38.7,83.8,73.2C3043.4,2170.7,3015.5,2146.3,2994.7,2102.8L2994.7,2102.8z"/>
<path class="st3" d="M2995.7,2037c35.2,18.7,54.7,43,58.3,73C3025.9,2100.3,3006.5,2076,2995.7,2037L2995.7,2037z"/>
<path class="st3" d="M3065.2,2080.4c-22.8-19.3-32.5-49.2-28.9-89.6C3062.6,2021.2,3072.3,2051,3065.2,2080.4L3065.2,2080.4z"/>
<path class="st3" d="M3722.8,2517.7c39.3,66.6,47.2,126.4,23.7,179.4C3710.1,2652.4,3702.2,2592.6,3722.8,2517.7L3722.8,2517.7z"/>
<path class="st3" d="M3681.6,2625.7c-36.4-44.6-44.3-104.5-23.7-179.4C3697.2,2512.9,3705.1,2572.7,3681.6,2625.7L3681.6,2625.7z"/>
<path class="st3" d="M3564.6,2416.7c53.7,55.2,75.2,111.4,64.7,168.6C3583.5,2550.7,3562,2494.5,3564.6,2416.7L3564.6,2416.7z"/>
<path class="st3" d="M3483.8,2364.5c55.3,53.5,78.5,109,69.6,166.5C3506.7,2497.8,3483.5,2442.3,3483.8,2364.5L3483.8,2364.5z"/>
<path class="st3" d="M3404.8,2308.7c55.3,53.5,78.5,109,69.6,166.5C3427.7,2442.1,3404.5,2386.6,3404.8,2308.7L3404.8,2308.7z"/>
<path class="st3" d="M3321.3,2257.9c54.6,52.8,77.5,107.6,68.7,164.3C3343.9,2389.6,3321,2334.8,3321.3,2257.9L3321.3,2257.9z"/>
<path class="st3" d="M3269.8,2199.4c36.1,55.5,45.1,106.5,26.8,152.7C3263.8,2315.3,3254.9,2264.4,3269.8,2199.4L3269.8,2199.4z"/>
<path class="st3" d="M3166.7,2251.7c-15.1-37.7-8.1-79.4,21.1-125.2C3200.4,2179.6,3193.4,2221.3,3166.7,2251.7L3166.7,2251.7z"/>
<path class="st3" d="M3143.9,2089.2c11,46.2,4.9,82.5-18.4,108.9C3112.3,2165.3,3118.4,2129,3143.9,2089.2L3143.9,2089.2z"/>
<path class="st3" d="M3094.5,2136.1c-13.2-32.8-7.1-69.1,18.4-108.9C3123.8,2073.4,3117.7,2109.7,3094.5,2136.1L3094.5,2136.1z"/>
<path class="st3" d="M3731.7,2702.1c-25.3-33.8-54.4-64.8-87.4-93.2c-33.2-28.6-98.9-72.9-197.2-132.9
	c-99.4-60.6-176.2-114.2-230.3-160.8c-14.6-12.6-28.2-25.3-40.9-38.3c-25.6-27-48.1-56.4-67.3-88.3c-23.2-36.8-36.8-66.7-40.9-89.6
	l-1.5-2.5c-0.7-0.6-0.9-1.4-0.5-2.3c-0.1-0.9,0.2-1.7,0.8-2.4c0.8-0.5,1.7-0.8,2.5-0.9c0.9-0.1,1.7,0.2,2.4,0.8l1.4,1.2
	c0.2,0.2,0.5,1.1,0.9,2.6l0.4,0.3c0,0.4,0.1,1.1,0.2,2c4.2,22.2,17.6,51.2,40,87c19.2,31.4,41.6,60.4,67.2,86.9
	c12.5,13.2,25.7,25.9,39.9,38.1c1.2,1,2.5,2.1,3.7,3.1c-24.4-37.3-25.8-83.9-4-139.9c25,54.4,26.3,101.1,4.1,139.9
	c53.4,45.5,128.6,97.8,225.6,156.8c99,60.6,165.1,105.2,198.2,133.8c33.2,28.6,62.6,60.1,88.1,94.5c25.8,34.6,41.5,57.6,47,68.9
	c0.3,1.1,0.4,2,0.2,2.6c-0.4,0.9-0.9,1.7-1.8,2.2c-1.1,0.3-1.9,0.4-2.6,0.2c-0.7-0.6-1.4-1.2-2.1-1.8c-5.3-11.6-20.5-34.4-45.7-68.4
	L3731.7,2702.1L3731.7,2702.1z"/>
<g>
	<defs>
		<rect id="SVGID_1_" x="1864.1" y="794.5" width="5341" height="3654.3"/>
	</defs>
	<clipPath id="SVGID_2_">
		<use xlink:href="#SVGID_1_"  style="overflow:visible;"/>
	</clipPath>
	<path class="st5" d="M4947.7,3641.2c3.3,104,133.5,675.5,259.7,750.3c82.4-49.2,136.6-264.2,124.8-358.4
		c-52.8-161.8-275.5-472.9-275.5-472.9L4947.7,3641.2L4947.7,3641.2z"/>
	<path class="st5" d="M5649.2,3662.3c0,0,118.6,144.9,20.4,332.5c-98.2,187.6-300.6,489.2-462.3,396.8
		C5101.6,4110.2,5545.1,3726.4,5649.2,3662.3L5649.2,3662.3z"/>
</g>
<path class="st6" d="M6658.3,4448.8h-224c-34.7-155-30-379-38.9-506.4c-14.9-212.2,41.2-315.3,41.2-315.3
	C6638.7,3649.9,6739.2,4148.1,6658.3,4448.8L6658.3,4448.8z"/>
<path class="st7" d="M6457.1,4448.8h-986.9c11-56,27.2-131,45.4-212.4c57-255.1,133.6-574.1,133.6-574.1s172.5-100.9,245-102.1
	c0,0,18.5-0.6,48.6-1.1c17.4-0.3,38.6-0.6,62.5-0.8c49.9-0.3,111-0.1,171,1.9c125,1.2,260.2,66.9,260.2,66.9L6457.1,4448.8
	L6457.1,4448.8z"/>
<path class="st8" d="M4932.9,3354.5c43.2,22.1,95.9,77.2,123.8,205.7c8,69.5-143.3,118.4-143.3,118.4l-18.1-281.2L4932.9,3354.5
	L4932.9,3354.5z"/>
<path class="st1" d="M4794,3855c-18.7,0-34.6-10.7-39.6-26.7c-4.1-13.1-0.2-27.7,10-38.7l-153.4-438.9l-0.1-0.5
	c-5.5-17.9-4-37.1,4.4-55.3c1.5-3.4,3.3-6.7,5.3-9.9c14.3-23.3,18.7-51.3,12-76.9l-52.7-202.7c-9.7-5.1-12.4-15.6-13.9-21.5
	c-0.4-1.5-0.7-2.8-1.1-4.2l-1.7-5.6c-3.3-10.6-3.6-19.5-0.9-27.2c-0.6-1.7-1.1-3.4-1.6-4.7c-1.7-5.6-3.4-11.6-2.6-17.9
	c1.1-9.2,7-16.2,16.4-19.3l90.8-29.3c2.8-0.9,5.5-1.4,8.2-1.4c6.1,0,11.6,2.3,15.9,6.7c4.8,4.9,7.3,11.5,8.9,16.7
	c0.9,2.8,1.5,5.4,1.9,7.7c6,4.8,10.5,11.7,13.1,20.2l2.2,7c2.1,6.9,5.3,17.1,0.4,27.2l70,200c8.6,24.5,27.5,44.5,51.8,54.9
	c22.2,9.4,38,26.4,44.7,47.8c0,0.1,0,0.1,127.7,451.8c11.4,4.2,20.1,13,23.4,23.9c6.5,21.1-7.7,44.5-31.6,52.3l-192.2,62.1
	C4804.5,3854.1,4799.3,3855,4794,3855L4794,3855z"/>
<path class="st7" d="M4673.4,2869.9c-3.1,0-6.3,0.5-9.5,1.6l-90.8,29.3c-11.1,3.6-18.1,11.9-19.4,23c-0.8,7.1,1,13.9,2.8,19.8
	c0.3,1,0.7,2.2,1.1,3.5c-2.4,8.2-2,17.5,1.4,28.4l1.7,5.6c0.4,1.2,0.7,2.6,1.1,4c1.6,6.2,4.4,17.1,14.4,23.3l52.2,200.9
	c6.3,24.4,2.1,51.2-11.5,73.4c-2.1,3.3-3.9,6.8-5.6,10.3c-8.9,19.3-10.5,39.5-4.6,58.5c0.1,0.2,0.1,0.4,0.2,0.6l116.3,332.7
	l36.3,103.8c-10,11.9-13.5,27.1-9.2,41c5.5,17.8,23.1,29.8,43.7,29.8c5.7,0,11.4-0.9,16.9-2.7l192.2-62.1
	c26.2-8.5,41.7-34.4,34.4-57.8c-3.6-11.5-12.4-20.9-24-25.9c-127.1-449.6-127.1-449.6-127.1-449.8c-7-22.7-23.7-40.6-47.1-50.5
	c-23.2-9.8-41.2-28.9-49.4-52.3l-69.4-198.4c4.5-11.1,1.1-22-1-28.8l-2.2-6.9c-2.7-8.7-7.2-15.9-13.3-21.2c-0.4-2.1-1-4.3-1.7-6.7
	c-1.8-5.7-4.5-12.9-10-18.5C4687.2,2872.7,4680.7,2869.9,4673.4,2869.9L4673.4,2869.9L4673.4,2869.9z M4673.4,2878.7
	c4.9,0,9.3,1.8,12.9,5.4c4.2,4.2,6.4,10.2,7.8,14.9c1,3.3,1.7,6.2,2,8.8c5.9,4.2,10.4,10.8,13,19l2.2,7c2.2,7.1,5.1,16.5-0.2,25.5
	l70.7,201.9c9.2,26.2,29.1,46.8,54.2,57.4c20.4,8.7,35.9,24.5,42.2,45.1c0,0.1,128.3,453.9,128.3,453.9
	c11.1,3.4,19.6,11.4,22.8,21.8c5.8,18.8-7.1,39.7-28.8,46.7l-192.2,62c-4.8,1.6-9.7,2.3-14.4,2.3c-16.4,0-31-9-35.5-23.7
	c-3.9-12.5,0.5-26.3,10.9-36.2l-38.1-108.9l-116.3-332.7c0-0.1-0.1-0.2-0.1-0.3c-5.2-16.9-3.8-34.9,4.2-52.1c1.5-3.2,3.2-6.4,5-9.4
	c14.8-24,19.7-53,12.6-80.4l-53.2-204.7c-9.4-3.8-11.8-13.3-13.4-19.4c-0.4-1.5-0.8-3-1.2-4.4l-1.7-5.6c-3.2-10.3-3.3-18.8-0.4-25.8
	c-0.8-2-1.5-4.1-2.1-6.1c-1.6-5.2-3.1-10.7-2.5-16.1c0.9-7.5,5.6-13,13.4-15.6l90.8-29.3C4668.9,2879.1,4671.2,2878.7,4673.4,2878.7
	L4673.4,2878.7L4673.4,2878.7z"/>
<path class="st9" d="M4748.2,3096l25.3,70.9c9.7,27.3,30.2,49.4,56.7,59.8c18.8,7.3,33.3,21.3,39.1,40.1l129.7,459
	c10.2,1.5,18.6,7.6,21.4,16.7c4.3,13.8-5.8,29.4-22.6,34.8l-192.2,62c-16.7,5.4-33.8-1.4-38-15.2c-3.4-10.9,2.3-23,13-30.2
	l-40.3-115.2l-79-226.1l-37.2-106.6c-5.8-18.8-1.7-38.8,9.6-55.9c15.6-23.4,21.1-52.4,14.1-79.8l-29.8-118
	c21.2,4.8,40.9,25.6,63.8,21.2C4704.2,3109,4730,3068.5,4748.2,3096L4748.2,3096z"/>
<path class="st1" d="M4816.8,3287.9c1.7,5.4,7.4,8.3,12.8,6.6c5.4-1.8,8.5-7.5,6.8-12.9s-7.4-8.3-12.8-6.6
	C4818.2,3276.7,4815.1,3282.5,4816.8,3287.9L4816.8,3287.9L4816.8,3287.9z M4826.4,3300.7c-6.7,0-12.9-4.3-15-11.1l0,0
	c-2.6-8.4,2.1-17.4,10.4-20.1c8.3-2.7,17.3,1.9,19.8,10.3c2.6,8.4-2.1,17.4-10.4,20.1C4829.7,3300.4,4828,3300.7,4826.4,3300.7
	L4826.4,3300.7z"/>
<path class="st1" d="M4947.9,3722.2c-1.6,0-3.1,0.3-4.6,0.7c-3.8,1.2-7,3.9-8.9,7.5c-1.9,3.6-2.2,7.6-1.1,11.4
	c1.2,3.8,3.8,6.9,7.3,8.8c3.6,1.8,7.6,2.2,11.5,0.9c3.8-1.2,7-3.9,8.9-7.5c1.9-3.6,2.3-7.6,1.1-11.4c-1.2-3.8-3.8-6.9-7.3-8.8
	C4952.6,3722.8,4950.2,3722.2,4947.9,3722.2L4947.9,3722.2z M4947.4,3758.1c-3.2,0-6.4-0.8-9.3-2.3c-4.9-2.5-8.5-6.8-10.1-12.1
	c-1.6-5.3-1.1-10.9,1.5-15.9c2.6-4.9,6.9-8.6,12.1-10.3c5.2-1.7,10.8-1.2,15.7,1.3c4.9,2.5,8.5,6.9,10.1,12.1
	c1.6,5.3,1.1,10.9-1.5,15.9c-2.6,4.9-6.9,8.6-12.1,10.3C4951.7,3757.7,4949.5,3758.1,4947.4,3758.1L4947.4,3758.1z"/>
<path class="st1" d="M4776.4,3666.9c2.4,7.9,10.9,12.2,18.8,9.7c3.9-1.2,7-3.9,8.9-7.5c1.9-3.6,2.3-7.6,1.1-11.4
	c-2.4-7.9-10.9-12.2-18.8-9.7C4778.4,3650.5,4774,3659,4776.4,3666.9L4776.4,3666.9L4776.4,3666.9z M4790.6,3683.1
	c-8.7,0-16.8-5.6-19.5-14.4l0,0c-3.4-10.9,2.7-22.6,13.6-26.1c10.9-3.5,22.4,2.5,25.8,13.4c1.6,5.3,1.1,10.9-1.5,15.9
	c-2.6,4.9-6.9,8.6-12.1,10.3C4794.8,3682.7,4792.6,3683.1,4790.6,3683.1L4790.6,3683.1z"/>
<path class="st1" d="M4888.2,3677.7c-1.1,0-2.2,0.2-3.3,0.5c-2.7,0.9-4.9,2.7-6.2,5.2c-1.3,2.5-1.6,5.4-0.8,8
	c1.7,5.5,7.6,8.6,13.2,6.8c5.6-1.8,8.7-7.7,7-13.3c-0.8-2.7-2.6-4.8-5.1-6.1C4891.5,3678.1,4889.9,3677.7,4888.2,3677.7
	L4888.2,3677.7z M4887.9,3704.5c-6.8,0-13.1-4.4-15.3-11.3c-1.3-4.1-0.9-8.6,1.1-12.4s5.4-6.7,9.5-8c4.1-1.3,8.5-1,12.3,1
	c3.8,2,6.6,5.4,7.9,9.5c2.6,8.5-2.1,17.7-10.6,20.4C4891.2,3704.2,4889.5,3704.5,4887.9,3704.5L4887.9,3704.5z"/>
<path class="st1" d="M4913.5,3564.9c-0.8,0-1.7,0.1-2.5,0.4c-2.1,0.7-3.8,2.1-4.8,4.1c-1,1.9-1.2,4.1-0.6,6.2l0,0
	c0.6,2.1,2,3.7,4,4.7c1.9,1,4.1,1.2,6.2,0.5c2.1-0.7,3.8-2.1,4.8-4.1c1-1.9,1.2-4.1,0.6-6.2
	C4920.1,3567.1,4917,3564.9,4913.5,3564.9L4913.5,3564.9z M4913.3,3586.9c-2.1,0-4.3-0.5-6.2-1.5c-3.3-1.7-5.6-4.6-6.7-8.1
	c-1.1-3.5-0.8-7.3,1-10.6c1.7-3.3,4.6-5.7,8.1-6.8c7.2-2.3,15,1.7,17.2,9c1.1,3.5,0.7,7.3-1,10.6c-1.7,3.3-4.6,5.7-8.1,6.8
	C4916.1,3586.7,4914.7,3586.9,4913.3,3586.9L4913.3,3586.9z"/>
<path class="st1" d="M4889.4,3540c-0.8,0-1.7,0.1-2.5,0.4c-2.1,0.7-3.8,2.1-4.8,4.1c-1,1.9-1.2,4.1-0.6,6.2
	c1.3,4.3,5.9,6.6,10.2,5.2c2.1-0.7,3.8-2.1,4.8-4.1c1-1.9,1.2-4.1,0.6-6.2c-0.6-2.1-2-3.7-4-4.7
	C4891.9,3540.3,4890.6,3540,4889.4,3540L4889.4,3540z M4889.1,3562c-5.8,0-11.2-3.7-13-9.6c-1.1-3.5-0.8-7.3,1-10.6
	c1.7-3.3,4.6-5.7,8.1-6.8c3.5-1.1,7.2-0.8,10.5,0.8c3.3,1.7,5.7,4.6,6.8,8.1c1.1,3.5,0.8,7.3-1,10.6c-1.7,3.3-4.6,5.7-8.1,6.8
	C4891.9,3561.8,4890.5,3562,4889.1,3562L4889.1,3562z"/>
<path class="st1" d="M4681,3298.4c-0.9,0-1.7,0.1-2.5,0.4c-2.1,0.7-3.8,2.1-4.8,4.1c-1,1.9-1.2,4.1-0.6,6.2l0,0c0.6,2.1,2,3.7,4,4.7
	c1.9,1,4.1,1.2,6.2,0.5c2.1-0.7,3.8-2.1,4.8-4.1c1-1.9,1.2-4.1,0.6-6.2c-0.6-2-2-3.7-4-4.7C4683.5,3298.7,4682.3,3298.4,4681,3298.4
	L4681,3298.4z M4680.7,3320.4c-2.1,0-4.3-0.5-6.2-1.5c-3.3-1.7-5.6-4.6-6.8-8.1c-1.1-3.5-0.7-7.3,1-10.6c1.7-3.3,4.6-5.7,8.1-6.8
	c3.5-1.1,7.2-0.8,10.5,0.9c3.3,1.7,5.6,4.6,6.8,8.1c1.1,3.5,0.7,7.3-1,10.6c-1.7,3.3-4.6,5.7-8.1,6.8
	C4683.5,3320.2,4682.1,3320.4,4680.7,3320.4L4680.7,3320.4z"/>
<path class="st1" d="M4729.1,3359.7c1.3,4.3,5.9,6.6,10.2,5.2c4.3-1.4,6.7-6,5.4-10.3c-1.3-4.3-5.9-6.6-10.2-5.2
	C4730.2,3350.9,4727.8,3355.5,4729.1,3359.7L4729.1,3359.7L4729.1,3359.7z M4736.8,3371.1c-5.8,0-11.2-3.7-13-9.6l0,0
	c-2.3-7.3,1.8-15.1,9-17.4c7.2-2.3,15,1.7,17.2,9c2.3,7.3-1.8,15.1-9,17.4C4739.6,3370.9,4738.2,3371.1,4736.8,3371.1L4736.8,3371.1
	z"/>
<path class="st1" d="M4895.7,3499.1c0.8,2.4,3.4,3.8,5.9,3c1.2-0.4,2.2-1.2,2.8-2.4c0.6-1.1,0.7-2.4,0.3-3.6
	c-0.4-1.2-1.2-2.1-2.3-2.7c-1.1-0.6-2.4-0.7-3.6-0.3C4896.4,3494,4895,3496.6,4895.7,3499.1L4895.7,3499.1L4895.7,3499.1z
	 M4900.2,3508.1c-4.4,0-8.4-2.8-9.8-7.2l0,0c-1.7-5.5,1.4-11.3,6.8-13.1c2.6-0.8,5.4-0.6,7.8,0.6c2.4,1.3,4.3,3.5,5.1,6.1
	c0.8,2.7,0.6,5.5-0.7,8c-1.3,2.5-3.4,4.3-6.1,5.1C4902.3,3507.9,4901.2,3508.1,4900.2,3508.1L4900.2,3508.1z"/>
<path class="st1" d="M4705.1,3208.4c-0.5,0-1,0.1-1.5,0.2c-1.2,0.4-2.2,1.2-2.8,2.4c-0.6,1.1-0.7,2.4-0.3,3.6l0,0
	c0.8,2.4,3.4,3.8,5.9,3c2.5-0.8,3.9-3.5,3.1-5.9C4708.9,3209.7,4707,3208.4,4705.1,3208.4L4705.1,3208.4z M4704.9,3223.5
	c-4.4,0-8.4-2.8-9.8-7.2l0,0c-0.8-2.7-0.6-5.5,0.7-8c1.3-2.5,3.4-4.3,6.1-5.1c5.4-1.8,11.2,1.3,12.9,6.7c1.7,5.5-1.3,11.3-6.8,13.1
	C4707,3223.4,4705.9,3223.5,4704.9,3223.5L4704.9,3223.5z"/>
<path class="st1" d="M4784.7,3348.7c-0.5,0-1,0.1-1.5,0.2c-1.2,0.4-2.2,1.2-2.8,2.4c-0.6,1.1-0.7,2.4-0.3,3.5l0,0
	c0.4,1.2,1.2,2.2,2.3,2.7c1.1,0.6,2.4,0.7,3.6,0.3c2.5-0.8,3.9-3.5,3.1-5.9C4788.5,3349.9,4786.7,3348.7,4784.7,3348.7
	L4784.7,3348.7z M4784.5,3363.8c-1.6,0-3.2-0.4-4.7-1.2c-2.4-1.3-4.3-3.4-5.1-6.1l0,0c-0.8-2.7-0.6-5.5,0.7-8c1.3-2.5,3.4-4.3,6-5.1
	c5.4-1.8,11.2,1.3,12.9,6.7c1.7,5.5-1.4,11.3-6.8,13.1C4786.6,3363.6,4785.6,3363.8,4784.5,3363.8L4784.5,3363.8z"/>
<path class="st9" d="M4634.9,3016.3c2.4,7.8,10.6,12,18.4,9.5c7.8-2.5,12.1-10.8,9.7-18.6c-2.4-7.8-10.6-12-18.4-9.5
	C4636.8,3000.3,4632.5,3008.6,4634.9,3016.3L4634.9,3016.3z"/>
<path class="st9" d="M4649.8,3088.3c1.8,5.7,7.8,8.8,13.5,7c5.7-1.8,8.9-8,7.1-13.7c-1.8-5.7-7.8-8.8-13.5-7
	C4651.3,3076.5,4648.1,3082.6,4649.8,3088.3L4649.8,3088.3z"/>
<path class="st9" d="M4666.2,2975.3c1.5,4.8,6.6,7.4,11.4,5.9c4.8-1.6,7.5-6.7,6-11.5c-1.5-4.8-6.6-7.4-11.4-5.9
	C4667.4,2965.4,4664.8,2970.5,4666.2,2975.3L4666.2,2975.3z"/>
<path class="st9" d="M4626.7,2959.6c2.2,7.3,9.9,11.2,17.1,8.9c7.2-2.3,11.3-10.1,9.1-17.3c-2.3-7.3-9.9-11.2-17.2-8.9
	C4628.5,2944.6,4624.4,2952.4,4626.7,2959.6L4626.7,2959.6z"/>
<path class="st7" d="M4661.3,3452.5l79,226.1l113.1-36.5c21.3-6.9,33.3-29.8,26.7-51.1l-46.8-151.5c-6.6-21.3-29.2-33.1-50.6-26.2
	L4661.3,3452.5L4661.3,3452.5z"/>
<path class="st7" d="M4610.4,3034c-1.8,0-3.5-1.2-4.1-3.1c-0.7-2.3,0.5-4.8,2.8-5.5l90-29c2.3-0.7,4.7,0.5,5.4,2.9
	c0.7,2.3-0.5,4.8-2.8,5.5l-90,29C4611.3,3034,4610.9,3034,4610.4,3034L4610.4,3034z"/>
<path class="st7" d="M4577.1,2984.5c-1.8,0-3.5-1.2-4.1-3.1c-0.7-2.3,0.5-4.8,2.8-5.5l68-22c2.3-0.7,4.7,0.6,5.4,2.9
	c0.7,2.3-0.5,4.8-2.8,5.5l-68,21.9C4578,2984.4,4577.5,2984.5,4577.1,2984.5L4577.1,2984.5z"/>
<path class="st7" d="M4809,3786.4c-1.8,0-3.5-1.2-4.1-3.1c-0.7-2.3,0.5-4.8,2.8-5.5l155.7-50.3c2.3-0.7,4.7,0.6,5.4,2.9
	c0.7,2.3-0.5,4.8-2.8,5.5l-155.7,50.2C4809.9,3786.4,4809.4,3786.4,4809,3786.4L4809,3786.4z"/>
<path class="st7" d="M4712.3,3241.2c-1.8,0-3.5-1.2-4.1-3.1c-0.7-2.3,0.5-4.8,2.8-5.5l63-20.3c2.3-0.7,4.7,0.5,5.4,2.9
	c0.7,2.3-0.6,4.8-2.8,5.5l-63,20.3C4713.2,3241.2,4712.7,3241.2,4712.3,3241.2L4712.3,3241.2z"/>
<path class="st8" d="M4753.1,3578.8c20.1,15.7,22.5,55.4,4.8,85.4c-1.7-0.1-1.6,1.8-1.6,1.8c3.3,0.3,5,2.4,8.4,4.7
	c15.2,15.2,19,45.2,6.1,65.8c-12.9,20.6-36,28.3-52.8,13c-13.5-11.1-18.8-35.3-12.5-54.5c-5-0.5-11.7-3-16.7-7.4
	c-13.4-11.1-18.8-35.3-14.2-58.6c-3.4-2.3-6.7-4.6-10.1-6.9c-16.8-15.4-20.7-49.3-8-77.8c-6.6-0.6-11.6-3-16.7-7.5
	c-18.5-17.5-22.4-51.4-7.9-77.8c14.5-26.3,42.5-33.7,62.7-16c16.8,15.4,22.2,39.6,16,62.7c6.6,0.6,13.3,3.2,18.4,7.6
	c13.4,11.1,18.8,35.3,14.2,58.6C4746.4,3574.2,4749.8,3576.5,4753.1,3578.8L4753.1,3578.8z"/>
<path class="st8" d="M4931.4,3353.6c19.8,13.3,19.3,49.8-1.2,81.6c-20.4,31.8-53,46.8-72.8,33.5c-19.8-13.3-19.3-49.8,1.2-81.6
	C4879,3355.3,4911.6,3340.3,4931.4,3353.6L4931.4,3353.6z"/>
<path class="st4" d="M6067,3293.7h-0.1l-116.8-12.3l-55.8,278.9c0,0-10.6,66.6,105.5,98.7c99.8,27.6,175.9-67.2,175.9-67.2l6-285.2
	L6067,3293.7L6067,3293.7z"/>
<path class="st4" d="M6329.5,3101.9c-38.3,194.8-190.7,327.9-340.4,297.1c-149.7-30.8-240-213.7-201.7-408.5
	c38.3-194.8,190.7-327.9,340.4-297.1C6277.6,2724.2,6367.9,2907.1,6329.5,3101.9L6329.5,3101.9z"/>
<path class="st8" d="M5946.1,3082.7c-30.2,35.1-68.1,77.8-68.1,77.8s7.4,43.6,60.5,53.1c-21-13.3-40.8-32.5-26.7-61.7
	C5925.9,3122.7,5946.1,3082.7,5946.1,3082.7L5946.1,3082.7z"/>
<path class="st10" d="M6402.1,2948.1c28.5-186.2-136-259.1-136-259.1s38.6-11,33.1-68.3c-27.7,14.9-60.8,20.5-91.7,15.2
	c-208.1-35.4-342.3-9.2-326.9,76.2c5.5,30.4-131.4,36.5-83.8,238.7c14.5-22.5,31.8-109.6,73.8-126.1c42.1-16.6,13.4,50.3,106.7,45.9
	c94-4.4,157.4-39.9,223,2.4c52.2,37.8,105.4,270.5,101.3,285.9C6311.2,3123.6,6389.6,3029.9,6402.1,2948.1L6402.1,2948.1z"/>
<path class="st10" d="M5778.9,3097.7c0,0,10.9,108,31.9,138.1c7.9-45.6,104.7-10,147.4-3.3c77.2,12.2,160.6-52.9,180,53.2
	c129.7,22.4,149-207.5,149-207.5c46.4,226.5-37.7,503-354,480.2C5722.7,3543.4,5739.8,3258.1,5778.9,3097.7L5778.9,3097.7z"/>
<path d="M6073,3076.9c15.1,2.1,29-8.8,31.1-24.2c2-15.5-8.6-29.7-23.7-31.8c-15.1-2.1-29,8.8-31.1,24.2
	C6047.2,3060.6,6057.8,3074.8,6073,3076.9L6073,3076.9z"/>
<path d="M5853.9,3046c15.1,2.1,29-8.8,31.1-24.2c2-15.5-8.6-29.7-23.7-31.7c-15.1-2.1-29,8.8-31.1,24.2
	C5828.1,3029.7,5838.7,3043.9,5853.9,3046L5853.9,3046z"/>
<path class="st10" d="M5811,2989.6c4.5,0.6,9.2-1.1,12.2-5c8.3-10.7,17.4-16.6,27.1-17.4c16.7-1.4,31.4,11.8,31.5,12
	c5.4,5,13.8,4.6,18.7-0.9c4.9-5.5,4.6-14-0.8-19.1c-0.9-0.9-23-21.3-51.4-19c-17.4,1.4-32.9,10.7-46,27.7
	c-4.5,5.9-3.6,14.4,2.2,19.1C5806.5,2988.3,5808.7,2989.3,5811,2989.6L5811,2989.6z"/>
<path class="st10" d="M6134.7,3034.7c2.9,0.4,5.9-0.2,8.6-1.8c6.3-3.9,8.3-12.2,4.5-18.6c-14.4-24.4-32-39.1-52.2-43.5
	c-26.1-5.7-46.4,8.4-47.3,9c-6,4.3-7.5,12.7-3.3,18.9c4.2,6.1,12.4,7.7,18.4,3.5c0.4-0.3,12.4-8.1,27-4.8
	c12.6,2.9,24.3,13.3,34.7,30.9C6127.3,3031.9,6130.8,3034.2,6134.7,3034.7L6134.7,3034.7z"/>
<path class="st4" d="M6289.6,3079.3c-35.1,29.9-44.2,78-20.3,107.4c23.9,29.4,71.8,29,107-0.9c35.1-29.9,44.2-78,20.3-107.4
	C6372.7,3049,6324.8,3049.4,6289.6,3079.3L6289.6,3079.3z"/>
<path class="st8" d="M6313.3,3176.4c-1.4-0.6-2.6-1.6-3.6-2.9c-14.4-18.4-16.4-39.5-5.3-56.5c11.4-17.4,33.3-25.9,52.1-20.3
	c5.3,1.6,8.3,7.3,6.8,12.7c-1.6,5.4-7.1,8.5-12.4,6.9c-10.3-3.1-23.4,2.2-29.9,12c-6.2,9.5-4.7,20.9,4.3,32.3
	c3.5,4.4,2.8,10.8-1.5,14.4C6320.7,3177.6,6316.7,3178,6313.3,3176.4L6313.3,3176.4z"/>
<path class="st1" d="M6043.4,3302.2c5.1-5.5,1.3-14.5-6.1-14.5c-18.9,0-50-0.7-79.3-4.3c-29.3-3.6-59.7-10.5-78-15
	c-7.2-1.8-12.9,6-9.3,12.6c11.3,20.2,35.9,51.7,80.9,57.2C5996.6,3343.8,6027.7,3319.1,6043.4,3302.2L6043.4,3302.2z"/>
<g>
	<defs>
		<rect id="SVGID_3_" x="1864.1" y="794.5" width="5341" height="3654.3"/>
	</defs>
	<clipPath id="SVGID_4_">
		<use xlink:href="#SVGID_3_"  style="overflow:visible;"/>
	</clipPath>
	<path class="st11" d="M4172.8,3750.9c-3.4,107.7-150.1,599.1-280.9,676.5c-85.3-51-141.5-273.6-129.3-371.2
		c54.7-167.6,281.6-416,281.6-416L4172.8,3750.9L4172.8,3750.9z"/>
	<path class="st11" d="M3434.4,3672.1c0,0-122.8,150-21.2,344.3c101.7,194.3,311.3,506.7,478.8,411
		C4001.5,4136,3542.2,3738.5,3434.4,3672.1L3434.4,3672.1z"/>
</g>
<path class="st6" d="M2661.6,3962.2c-8.5,121.9-5,329.2-32.8,486.6h-249.2c-65.3-307.9,38.4-769.1,238.8-791.7
	C2618.4,3657,2677,3742.4,2661.6,3962.2L2661.6,3962.2z"/>
<path class="st7" d="M3612.1,4448.8H2598.6l19.7-791.7c0,0,97.7-39.2,205.1-53.1c21.7-2.8,43.9-4.6,65.7-4.8
	c83.5-2.7,168.6-13.4,225.2-21.8c40.5-6,66.3-10.9,66.3-10.9c75.1,1.2,253.8,105.7,253.8,105.7s79.4,330.3,138.4,594.5
	C3587.7,4333.8,3601.4,4396.7,3612.1,4448.8L3612.1,4448.8z"/>
<path class="st8" d="M4185.4,3435.8c-46,20-104.1,73.4-141.1,204.5c-12.7,71.2,140.6,131.8,140.6,131.8l36.6-289.4L4185.4,3435.8
	L4185.4,3435.8z"/>
<path class="st1" d="M4300.3,3962.4c-6.5,0-13-1.3-19.2-3.7l-194.8-76.9c-11.6-4.6-21.1-12.8-26.6-23.3c-5.7-10.7-6.7-22.3-2.7-32.8
	c4.2-11,13.7-19.5,25.7-23.2c160.6-458.3,160.6-458.4,160.7-458.5c8.2-21.7,25.7-38.2,49.2-46.5c25.8-9.1,46.6-28.5,57.1-53.2
	l85.1-202.1c-4.4-10.8-0.5-21.1,2.2-28.1l2.7-7.1c3.2-8.5,8.3-15.4,14.8-20c0.6-2.4,1.4-5,2.5-7.8c2-5.3,5-11.9,10.3-16.7
	c4.4-3.9,9.7-5.9,15.4-5.9c3.3,0,6.6,0.7,9.9,2l92,36.3c9.5,3.7,15.2,11.4,15.7,21c0.3,6.5-1.7,12.6-3.9,18.3
	c-0.5,1.4-1.2,3.1-1.9,4.8c2.3,8.1,1.4,17.3-2.7,28l-2.2,5.7c-0.5,1.4-1,2.8-1.4,4.3c-1.9,5.9-5.4,16.6-15.7,21.3l-67.3,206
	c-8.5,26-5.8,55.3,7.6,80.3c1.8,3.4,3.5,7,4.8,10.6c7.5,19.4,7.9,39.3,1,57.5c-0.1,0.2-0.1,0.3-0.2,0.5l-186.4,443.5
	c9.9,12,12.9,27.4,7.9,40.7C4333.9,3952.6,4318.5,3962.4,4300.3,3962.4L4300.3,3962.4z"/>
<path class="st7" d="M4482.5,2952L4482.5,2952c-6.8,0-13.1,2.5-18.3,7.1c-6,5.4-9.3,12.7-11.5,18.5c-0.9,2.4-1.6,4.6-2.2,6.7
	c-6.6,5.1-11.7,12.3-15.1,21.1l-2.7,7.1c-2.6,6.8-6.8,17.8-2.8,29.6l-84.4,200.4c-9.9,23.6-29.8,42.1-54.4,50.7
	c-24.8,8.7-43.2,26.1-51.9,49.2c-0.1,0.1-0.1,0.1-160,456.5c-12.3,4.4-22,13.5-26.4,25.2c-4.5,11.8-3.4,24.8,2.9,36.7
	c6.1,11.4,16.4,20.4,29,25.4l194.8,76.9c6.8,2.7,13.8,4,20.8,4c20,0,37.1-11,43.6-28c5.3-14.1,2.6-30.1-6.9-43l44.1-104.9
	l141.3-336.2c0.1-0.2,0.2-0.4,0.3-0.7c7.3-19.3,6.9-40.3-1-60.8c-1.4-3.7-3.2-7.5-5.1-11.1c-12.7-23.9-15.4-51.8-7.3-76.7
	l66.7-204.2c10.8-5.7,14.3-16.8,16.4-23.1c0.5-1.5,0.9-2.8,1.4-4.1l2.2-5.7c4.2-11,5.2-20.6,3.2-29.3c0.5-1.3,1-2.5,1.4-3.5
	c2.2-5.9,4.6-12.8,4.2-20.2c-0.6-11.5-7.4-20.6-18.6-25l-92-36.3C4490.2,2952.8,4486.3,2952,4482.5,2952L4482.5,2952L4482.5,2952z
	 M4482.5,2961.2c2.7,0,5.5,0.6,8.3,1.7l92,36.3c7.9,3.1,12.5,9.2,12.9,17c0.3,5.6-1.6,11.2-3.6,16.4c-0.8,2-1.6,4.1-2.5,6.1
	c2.6,7.4,1.9,16.2-2.1,26.7l-2.1,5.7c-0.6,1.4-1,2.9-1.5,4.5c-2,6.2-5.1,15.8-15.1,19.2l-68,208.1c-9.1,27.8-5.9,58.1,7.9,83.9
	c1.7,3.3,3.3,6.6,4.6,10.1c7.1,18.3,7.5,37.1,1,54.2c0,0.1-0.1,0.2-0.1,0.3l-141.3,336.2l-46.2,110.1c10.2,10.9,13.8,25.5,9,38.1
	c-5.3,13.9-19.4,22.2-35.2,22.2c-5.8,0-11.8-1.1-17.6-3.4l-194.8-76.9c-22-8.7-34-31.2-26.8-50.2c4-10.5,13.3-18.2,25-21
	c0,0,161.4-460.6,161.4-460.6c7.9-20.8,24.8-36.2,46.5-43.8c26.7-9.4,48.6-29.3,59.7-55.8l85.9-204c-4.9-9.7-1.3-19.2,1.5-26.4
	l2.7-7.1c3.1-8.3,8.2-14.8,14.6-18.8c0.5-2.7,1.4-5.6,2.7-9c1.8-4.8,4.5-10.8,9-14.9C4473.6,2962.8,4477.9,2961.2,4482.5,2961.2
	L4482.5,2961.2L4482.5,2961.2z"/>
<path class="st9" d="M4392.6,3180.9l-30.6,71.6c-11.8,27.5-34.3,49-62.4,58c-19.9,6.3-35.8,19.8-43,38.8l-163.2,465.8
	c-10.6,0.9-19.7,6.6-23.2,15.8c-5.3,14,4.2,30.8,21.1,37.5l194.8,76.9c16.9,6.7,35,0.7,40.3-13.2c4.2-11.1-0.9-23.9-11.5-32.1
	l48.9-116.5l96-228.5l45.3-107.7c7.2-19.1,4.2-40-6.4-58.4c-14.6-25.3-18.4-55.5-9.5-83.4l38.3-120c-22.2,3.5-44,23.8-67.3,17.7
	C4437.3,3197.2,4413.2,3153.6,4392.6,3180.9L4392.6,3180.9z"/>
<path class="st1" d="M4299.5,3360.1c-1.4,0-2.9,0.3-4.2,0.9c-2.6,1.1-4.5,3.2-5.5,5.8c-1,2.6-0.9,5.5,0.3,8.1c1.2,2.6,3.3,4.6,6,5.7
	c2.7,1.1,5.5,1,8.1-0.1c2.6-1.1,4.5-3.2,5.5-5.8c2.1-5.4-0.7-11.6-6.2-13.8C4302.1,3360.3,4300.8,3360.1,4299.5,3360.1
	L4299.5,3360.1z M4299.8,3387.3c-2,0-4.1-0.4-6-1.2c-4.1-1.6-7.3-4.7-9.1-8.8c-1.8-4.1-1.9-8.6-0.4-12.7c1.6-4.1,4.6-7.4,8.7-9.1
	c4-1.8,8.4-1.8,12.5-0.2c8.5,3.3,12.7,13,9.5,21.5l0,0c-1.6,4.1-4.6,7.4-8.7,9.1C4304.3,3386.8,4302.1,3387.3,4299.8,3387.3
	L4299.8,3387.3z"/>
<path class="st1" d="M4145.5,3814.9c-2.1,0-4.2,0.4-6.2,1.3c-3.8,1.7-6.7,4.7-8.1,8.6c-3,8,1.1,17.1,9.1,20.2c8,3.2,17-0.8,20-8.8
	l0,0c1.4-3.9,1.3-8.1-0.4-11.9c-1.7-3.8-4.8-6.8-8.7-8.3C4149.4,3815.2,4147.4,3814.9,4145.5,3814.9L4145.5,3814.9z M4146,3852
	c-2.6,0-5.2-0.5-7.8-1.5c-11-4.3-16.6-16.9-12.4-27.9c2-5.4,6-9.6,11.2-11.9c5.2-2.3,11-2.4,16.3-0.3c5.3,2.1,9.5,6.1,11.9,11.4
	c2.4,5.3,2.5,11.1,0.5,16.5l0,0C4162.5,3846.8,4154.5,3852,4146,3852L4146,3852z"/>
<path class="st1" d="M4359.4,3497.1c-6.2,0-12,3.7-14.3,9.8c-3,8,1,17.1,9,20.2c8,3.2,17-0.8,20-8.8l0,0c3-8-1-17.1-9.1-20.2
	C4363.3,3497.5,4361.4,3497.1,4359.4,3497.1L4359.4,3497.1z M4359.9,3534.2c-2.6,0-5.2-0.5-7.8-1.5c-11-4.3-16.6-16.8-12.4-27.9
	c4.2-11,16.5-16.5,27.5-12.2c11,4.3,16.6,16.9,12.4,27.9l0,0C4376.4,3529.1,4368.4,3534.2,4359.9,3534.2L4359.9,3534.2z"/>
<path class="st1" d="M4312.5,3747.8c-6.2,0-12,3.7-14.3,9.9c-3,8,1,17.1,9.1,20.2c8,3.2,17-0.8,20-8.8c3-8-1-17.1-9-20.2
	C4316.3,3748.1,4314.4,3747.8,4312.5,3747.8L4312.5,3747.8z M4312.9,3784.9c-2.6,0-5.2-0.5-7.8-1.5c-11-4.3-16.6-16.9-12.4-27.9
	c4.2-11.1,16.5-16.5,27.5-12.2c11,4.3,16.6,16.8,12.4,27.9l0,0C4329.4,3779.7,4321.5,3784.9,4312.9,3784.9L4312.9,3784.9z"/>
<path class="st1" d="M4210.3,3772.8c-1.5,0-2.9,0.3-4.3,0.9c-2.6,1.2-4.6,3.3-5.7,6c-1,2.7-0.9,5.7,0.3,8.3c1.2,2.7,3.4,4.8,6.1,5.8
	c5.6,2.2,11.9-0.5,14-6.1c2.1-5.6-0.8-12-6.4-14.2C4213,3773,4211.6,3772.8,4210.3,3772.8L4210.3,3772.8z M4210.7,3800.6
	c-2,0-4.1-0.4-6.1-1.2c-4.2-1.6-7.5-4.8-9.3-8.9c-1.8-4.1-2-8.7-0.4-12.9c1.6-4.2,4.7-7.5,8.8-9.3c4.1-1.8,8.6-1.9,12.7-0.2
	c8.6,3.4,12.9,13.2,9.7,21.9l0,0C4223.6,3796.5,4217.3,3800.6,4210.7,3800.6L4210.7,3800.6z"/>
<path class="st1" d="M4191.4,3654.5c-3.3,0-6.5,2-7.7,5.3c-1.6,4.3,0.6,9.2,4.9,10.9c4.3,1.7,9.2-0.4,10.9-4.7l0,0
	c1.6-4.3-0.6-9.2-4.9-11C4193.5,3654.7,4192.5,3654.5,4191.4,3654.5L4191.4,3654.5z M4191.7,3677.3c-1.7,0-3.5-0.3-5.2-1
	c-7.3-2.9-11-11.3-8.3-18.6c2.8-7.4,11-11,18.4-8.1c7.3,2.9,11,11.3,8.3,18.6l0,0C4202.7,3673.8,4197.4,3677.3,4191.7,3677.3
	L4191.7,3677.3z"/>
<path class="st1" d="M4218,3630.4c-3.4,0-6.5,2-7.7,5.3c-1.6,4.3,0.6,9.2,4.9,11c4.4,1.7,9.2-0.4,10.9-4.7c1.6-4.3-0.6-9.2-4.9-10.9
	C4220.1,3630.6,4219.1,3630.4,4218,3630.4L4218,3630.4z M4218.3,3653.2c-1.7,0-3.5-0.3-5.2-1c-7.3-2.9-11-11.3-8.3-18.6
	c2.8-7.4,11-11,18.4-8.1c7.3,2.9,11,11.3,8.2,18.6C4229.3,3649.7,4224,3653.2,4218.3,3653.2L4218.3,3653.2z"/>
<path class="st1" d="M4448.7,3394.4c-1.1,0-2.3,0.2-3.3,0.7c-2,0.9-3.6,2.5-4.4,4.6c-1.6,4.3,0.6,9.2,4.9,11
	c4.4,1.7,9.2-0.4,10.9-4.7c1.6-4.3-0.6-9.2-4.9-11C4450.8,3394.7,4449.8,3394.4,4448.7,3394.4L4448.7,3394.4z M4449,3417.3
	c-1.7,0-3.5-0.3-5.2-1c-7.3-2.9-11-11.3-8.2-18.6c1.4-3.6,4-6.4,7.5-7.9c3.5-1.5,7.3-1.6,10.9-0.2c7.3,2.9,11,11.3,8.2,18.6
	C4460.1,3413.8,4454.7,3417.3,4449,3417.3L4449,3417.3z"/>
<path class="st1" d="M4387.6,3443.2c-1.1,0-2.3,0.2-3.4,0.7c-2,0.9-3.6,2.5-4.4,4.6c-0.8,2.1-0.7,4.4,0.2,6.4
	c0.9,2.1,2.6,3.7,4.7,4.5c2.1,0.8,4.4,0.8,6.5-0.1c2-0.9,3.6-2.5,4.4-4.6l0,0c1.6-4.3-0.6-9.2-4.9-10.9
	C4389.7,3443.4,4388.6,3443.2,4387.6,3443.2L4387.6,3443.2z M4387.9,3466c-1.8,0-3.5-0.3-5.2-1c-3.5-1.4-6.3-4.1-7.9-7.6
	c-1.6-3.5-1.7-7.5-0.3-11c1.3-3.6,4-6.4,7.5-7.9c3.5-1.5,7.3-1.6,10.9-0.2c7.3,2.9,11,11.2,8.2,18.6l0,0c-1.4,3.6-4,6.4-7.5,7.9
	C4391.7,3465.6,4389.8,3466,4387.9,3466L4387.9,3466z"/>
<path class="st1" d="M4209.9,3581c-0.7,0-1.3,0.1-1.9,0.4c-1.2,0.5-2.1,1.5-2.5,2.6c-0.9,2.5,0.3,5.3,2.9,6.3c2.5,1,5.3-0.2,6.3-2.7
	c0.9-2.5-0.3-5.3-2.9-6.3C4211.1,3581.2,4210.5,3581,4209.9,3581L4209.9,3581z M4210.1,3596.7c-1.3,0-2.6-0.2-3.9-0.7
	c-5.5-2.2-8.3-8.4-6.2-14c1-2.7,3-4.8,5.6-6c2.6-1.2,5.5-1.2,8.2-0.1c5.5,2.2,8.3,8.4,6.2,14l0,0
	C4218.4,3594.1,4214.3,3596.7,4210.1,3596.7L4210.1,3596.7z"/>
<path class="st1" d="M4429.8,3299.9c-1.9,0-3.7,1.2-4.5,3.1c-0.9,2.5,0.3,5.3,2.9,6.3c2.5,1,5.3-0.2,6.3-2.7
	c0.4-1.2,0.4-2.5-0.1-3.7c-0.5-1.2-1.5-2.1-2.7-2.6C4431,3300,4430.4,3299.9,4429.8,3299.9L4429.8,3299.9z M4430,3315.6
	c-1.3,0-2.6-0.2-3.9-0.7c-5.5-2.2-8.3-8.4-6.2-14c2.1-5.5,8.3-8.3,13.8-6.1c2.7,1,4.8,3.1,5.9,5.7c1.2,2.6,1.3,5.6,0.3,8.3
	C4438.3,3313,4434.3,3315.6,4430,3315.6L4430,3315.6z"/>
<path class="st1" d="M4338.6,3439.6c-0.7,0-1.3,0.1-1.9,0.4c-1.2,0.5-2.1,1.5-2.5,2.6c-0.9,2.5,0.3,5.3,2.9,6.3
	c2.5,1,5.3-0.2,6.3-2.7c0.5-1.2,0.4-2.5-0.1-3.7c-0.6-1.2-1.5-2.1-2.8-2.6C4339.8,3439.7,4339.2,3439.6,4338.6,3439.6L4338.6,3439.6
	z M4338.8,3455.2c-1.3,0-2.6-0.2-3.9-0.7c-5.5-2.2-8.3-8.5-6.2-14c1-2.7,3-4.8,5.6-6c2.6-1.2,5.5-1.2,8.1-0.1c2.7,1,4.8,3.1,5.9,5.7
	c1.2,2.6,1.3,5.6,0.2,8.3l0,0C4347,3452.6,4343,3455.2,4338.8,3455.2L4338.8,3455.2z"/>
<path class="st9" d="M4514.8,3106c-3,7.9-11.7,11.7-19.6,8.6c-7.8-3.1-11.8-12-8.8-19.8c3-7.9,11.7-11.7,19.6-8.6
	C4513.8,3089.3,4517.8,3098.2,4514.8,3106L4514.8,3106z"/>
<path class="st9" d="M4494.8,3179.4c-2.2,5.8-8.6,8.6-14.4,6.3c-5.8-2.3-8.7-8.8-6.5-14.6c2.2-5.8,8.6-8.6,14.4-6.3
	C4494.1,3167.1,4497,3173.6,4494.8,3179.4L4494.8,3179.4z"/>
<path class="st9" d="M4588.3,3013.4c-2.2,5.8-8.6,8.6-14.4,6.3c-5.8-2.3-8.7-8.8-6.5-14.6c2.2-5.8,8.6-8.6,14.4-6.3
	C4587.5,3001.1,4590.5,3007.6,4588.3,3013.4L4588.3,3013.4z"/>
<path class="st9" d="M4485,3061.6c-1.8,4.9-7.3,7.2-12.1,5.3c-4.8-1.9-7.3-7.4-5.5-12.3c1.8-4.9,7.2-7.2,12.1-5.3
	C4484.4,3051.2,4486.9,3056.7,4485,3061.6L4485,3061.6z"/>
<path class="st9" d="M4526.9,3047.9c-2.8,7.3-11,10.9-18.3,8c-7.3-2.9-11-11.2-8.2-18.5c2.8-7.3,11-10.9,18.3-8.1
	C4526,3032.3,4529.7,3040.6,4526.9,3047.9L4526.9,3047.9z"/>
<path class="st7" d="M4459.9,3555.1l-96,228.5l-114.6-45.2c-21.6-8.5-32.5-33-24.3-54.6l58-153.4c8.2-21.6,32.3-32.3,53.9-23.7
	L4459.9,3555.1L4459.9,3555.1z"/>
<path class="st7" d="M4539.3,3126c-0.5,0-1.1-0.1-1.6-0.3l-91.2-36c-2.3-0.9-3.5-3.5-2.6-5.9c0.9-2.4,3.5-3.5,5.8-2.6l91.2,36
	c2.3,0.9,3.5,3.5,2.6,5.9C4542.7,3124.8,4541.1,3126,4539.3,3126L4539.3,3126z"/>
<path class="st7" d="M4576.9,3077c-0.5,0-1.1-0.1-1.6-0.3l-68.9-27.2c-2.3-0.9-3.5-3.5-2.6-5.9c0.9-2.4,3.5-3.5,5.8-2.6l68.9,27.2
	c2.3,0.9,3.5,3.6,2.6,5.9C4580.3,3075.9,4578.6,3077,4576.9,3077L4576.9,3077z"/>
<path class="st7" d="M4286.2,3890.5c-0.5,0-1.1-0.1-1.6-0.3l-157.7-62.3c-2.3-0.9-3.5-3.5-2.6-5.9c0.9-2.4,3.5-3.5,5.8-2.6
	l157.7,62.3c2.3,0.9,3.5,3.6,2.6,5.9C4289.7,3889.4,4288,3890.5,4286.2,3890.5L4286.2,3890.5z"/>
<path class="st7" d="M4420.8,3333.4c-0.5,0-1.1-0.1-1.6-0.3l-63.8-25.2c-2.3-0.9-3.4-3.5-2.6-5.9c0.9-2.4,3.5-3.5,5.8-2.6l63.8,25.2
	c2.3,0.9,3.5,3.6,2.6,5.9C4424.3,3332.2,4422.6,3333.4,4420.8,3333.4L4420.8,3333.4z"/>
<path class="st8" d="M4356.9,3679.5c-21.8,14.9-26.7,55.8-10.3,87.9c1.7,0,1.6,2,1.6,2c-3.5,0.1-5.3,2.2-8.9,4.3
	c-16.7,14.7-22.5,45.5-10.5,67.6c12,22.1,35.4,31.7,53.8,16.9c14.6-10.6,21.7-35.2,16.4-55.5c5.2-0.1,12.2-2.4,17.7-6.6
	c14.6-10.6,21.7-35.2,18.4-59.6c3.6-2.1,7.2-4.3,10.8-6.4c18.4-14.8,24.6-49.6,13.2-79.9c6.9-0.2,12.2-2.4,17.7-6.6
	c20.3-16.8,26.4-51.7,13.2-79.9c-13.3-28.2-41.8-37.6-63.8-20.7c-18.4,14.8-25.5,39.4-20.5,63.8c-6.9,0.2-14,2.4-19.5,6.7
	c-14.6,10.6-21.7,35.2-18.4,59.6C4364.1,3675.2,4360.5,3677.4,4356.9,3679.5L4356.9,3679.5z"/>
<path class="st8" d="M4187,3435c-21.3,12.4-23.1,50.2-4,84.4c19.1,34.2,51.8,51.9,73.1,39.5c21.3-12.4,23.1-50.2,4-84.5
	C4241,3440.2,4208.3,3422.6,4187,3435L4187,3435z"/>
<path class="st4" d="M2936.2,3305.4l0.1,0l120.9-12.7l57.8,288.8c0,0,11,69-109.3,102.2c-103.3,28.6-182.2-69.6-182.2-69.6
	l-6.2-295.3L2936.2,3305.4L2936.2,3305.4z"/>
<path class="st4" d="M2759.9,3204.8c74.9,179.6,247.4,276.4,385.4,216.3c138-60.1,205.1-238.5,118.2-437.9
	c-77.7-178.3-251.3-272.4-389.2-212.3C2736.2,2830.9,2685,3025.2,2759.9,3204.8L2759.9,3204.8z"/>
<path d="M3202.8,3050.3c15.4,1.6,29.3-9.9,30.8-25.7s-9.7-29.9-25.1-31.5c-15.4-1.6-29.3,9.9-30.8,25.7S3187.4,3048.7,3202.8,3050.3
	L3202.8,3050.3z"/>
<path d="M3006.7,3093.6c9.8,12.4,27.6,14.2,39.7,4.2c12.1-10.1,13.9-28.3,4.1-40.6c-9.8-12.4-27.6-14.2-39.7-4.2
	C2998.7,3063.1,2996.9,3081.2,3006.7,3093.6L3006.7,3093.6z"/>
<path class="st12" d="M3142.6,3060.7c37.9,33.4,85.4,73.9,85.4,73.9s-1.6,48.4-57.9,66.9c20.8-17.7,39.5-41.6,19.9-71
	S3142.6,3060.7,3142.6,3060.7L3142.6,3060.7z"/>
<path class="st10" d="M2964.5,3055.2c5.7,1.4,11.8-1.4,14.6-7.1c0.6-1.3,16.8-33.1,45.2-26.5c7,1.6,14-2.9,15.6-10.1
	c1.6-7.2-2.9-14.3-9.8-15.9c-38.7-9-65.5,22.6-74.2,40.6c-3.2,6.6-0.6,14.6,5.9,17.8C2962.6,3054.6,2963.5,3054.9,2964.5,3055.2
	L2964.5,3055.2z"/>
<path class="st10" d="M3239.1,2987c-4.8,3.4-11.5,3.1-16.1-1.1c-1.1-1-27.5-24.4-51.5-7.7c-5.9,4.1-14,2.6-18.1-3.5
	c-4.1-6-2.5-14.4,3.4-18.5c32.8-22.9,69-3.6,83.6,9.8c5.3,4.9,5.8,13.3,1,18.8C3240.6,2985.7,3239.9,2986.4,3239.1,2987L3239.1,2987
	z"/>
<path class="st10" d="M2789.6,3206.9c-5.3-70.7,56.1-60.3,55.5-154c-0.5-93.7,2.9-165,90.5-156.4c87.6,8.6,106.8-13.8,140.2-37.5
	c100.3-71.1,182.3,112.4,182.3,112.4s44.9-169.4-52.7-237.2c-108.2-75.2-123.1-6.2-220.3-57.2c-97.2-51-227.9-1.3-250.7,58.8
	c-24.1,63.3-25.9,107.5-103.6,156.6c-77.8,49.1-112.9,123.6-30.8,206.2c82.1,82.6-37.5,156.5,95.3,228.2
	c51.5,27.8,137,28.6,149.2,9.5C2860.7,3310.6,2792.9,3252.4,2789.6,3206.9L2789.6,3206.9z"/>
<path class="st10" d="M3296.1,3089.8c0,0,7.7,83.5-7.4,115.8c-15.1-42.2-59.2-1.8-90.3,2.1c-75.2,9.5-211.8-2.8-226.2,112.3
	c-92,28.9-179.9-168-179.9-168c-7.1,224.4,150.9,444.8,424.4,377.4C3411.9,3481.2,3359.8,3236.2,3296.1,3089.8L3296.1,3089.8z"/>
<path class="st1" d="M3265.1,3260.3c3-8.7-3.5-19.1-10.4-16.7c-17.8,6.1-47.3,15.3-76.1,20.2s-59.6,5.9-78.4,6
	c-7.4,0-10.2,12-4.6,19.3c17.2,22.4,50.7,55.1,94.8,47.6C3234.6,3329.1,3255.9,3287.1,3265.1,3260.3L3265.1,3260.3z"/>
<path class="st4" d="M2809.6,3154.3c37.4,28.1,49.6,76.2,27.1,107.5c-22.5,31.3-71,34-108.5,5.9c-37.4-28.1-49.6-76.2-27.1-107.5
	C2723.5,3128.9,2772.1,3126.2,2809.6,3154.3L2809.6,3154.3z"/>
<path class="st12" d="M2791.5,3254.3c1.3-0.7,2.6-1.8,3.5-3.2c13.5-19.5,14.3-41.1,1.9-57.6c-12.6-16.9-35.4-24.2-54.1-17.2
	c-5.3,2-8,7.9-6.1,13.3c1.9,5.4,7.7,8.2,13,6.2c10.3-3.8,23.9,0.7,31,10.3c6.9,9.2,6,20.9-2.4,33c-3.2,4.7-2.2,11.1,2.4,14.5
	C2784.1,3255.9,2788.2,3256,2791.5,3254.3L2791.5,3254.3z"/>
<path class="st4" d="M4595.8,2494.1c-1.2-2.1-3.9-0.7-7.8,3.5c0.3,0.3,0.5,0.5,0.5,0.5C4591.1,2497.1,4593.6,2495.7,4595.8,2494.1
	L4595.8,2494.1z"/>
<path class="st4" d="M3735.6,2771.4c25.9,6.7,51.1,14.5,75.6,23.2c71-12.2,142.1-16,212-11.9c72.1-0.2,143.9,8,213.9,24.4
	c1.9-2.9,135.5,63.7,172.9,72.4c40.5,5.4-12.9-55.4-13.9-55.1c-0.1,0.1,2.5-29.6-21.5-51.9c-11.4-11.5-89.5-38.8-165.9-50.3
	c-76.2-13.5-150.6-11.2-150.2-11.4c-66.2-4.5-133.2-2.4-200.1,6.6C3816,2732.7,3775.1,2750.8,3735.6,2771.4L3735.6,2771.4z"/>
<path class="st9" d="M4410.5,2875.9c3.5,0.4,9.4,0.7,10.6-2.2c3.9-9.2-21.1-40.9-26.8-46.1l-2-0.7l0.1-2.9
	c0.2-4.8,0.3-29.7-20.3-48.8c-10-10-86-37.7-164-49.4c-43.7-7.8-94.3-11.7-146.6-11.4c-1.3,0-2.4,0-3.3-0.1v0.1
	c-66.1-4.5-133.1-2.3-199,6.6c-38.7,14.1-76.8,30.6-113.4,49.3c22.3,6,44.3,12.9,65.8,20.6c70-12,141.2-16,211.8-11.8
	c71.9-0.2,143.7,8,213.6,24.3c2.4-0.1,6.9,1.8,16.6,6c9.1,4,21.5,9.6,35.8,16.2C4331.1,2844.6,4388.3,2870.7,4410.5,2875.9
	L4410.5,2875.9z M4414.4,2883.5c-1.5,0-3.2-0.1-5-0.4l-0.3-0.1c-22.8-5.3-80.5-31.6-122.7-50.9c-20.4-9.3-41.4-18.9-47.8-21.1
	l-0.1,0.1l-2.3-0.6c-69.7-16.4-141.4-24.5-213-24.3h-0.1h-0.1c-70.3-4.1-141.4-0.1-211.2,11.9l-0.9,0.1l-0.9-0.3
	c-24.5-8.8-49.8-16.5-75.3-23.1l-9.2-2.4l8.5-4.4c39.6-20.7,81-38.9,123.1-54.2l0.7-0.2c66.5-8.9,134.1-11.2,200.8-6.7l0.2,0
	c0.4,0,1.3,0,2.5,0c52.7-0.3,103.8,3.7,147.8,11.5c78.3,11.7,155.8,39.2,167.8,51.3c21.1,19.6,22.6,44.8,22.6,52.8
	c2,1.9,4.9,5.3,9.7,11.4c16.3,20.9,22.3,35.5,17.9,43.5C4425,2881.6,4420.7,2883.5,4414.4,2883.5L4414.4,2883.5z"/>
<path class="st4" d="M4234.8,2858.2c0.5-0.1,41.5,27.3,79.9,19.8c39-7.5,51.6-25.9,46.8-47.3c-4.6-21.1-25.7-36.7-67-28
	C4253.3,2811.7,4234.8,2858.4,4234.8,2858.2L4234.8,2858.2z"/>
<path class="st9" d="M4239.4,2856.7c27.1,15.6,53.5,21.8,74.6,17.7c20.6-4,34.4-11.1,40.8-21.1c4-6.2,5-13.5,3.2-21.8
	c-3.9-17.8-22.4-33.8-62.8-25.3C4262.8,2813.3,4244.9,2845.3,4239.4,2856.7L4239.4,2856.7z M4300.8,2882.9
	c-20.2,0-43.2-7.1-66.5-20.8c-0.3-0.2-0.5-0.3-0.6-0.4l-19.3-3.6l17.9-3.2c4.9-10.7,24.3-47.8,61.5-55.9
	c45.5-9.6,66.7,9.6,71.2,30.8c2.3,10.2,0.9,19.4-4.2,27.4c-7.5,11.8-22.8,20-45.5,24.3C4310.7,2882.5,4305.9,2882.9,4300.8,2882.9
	L4300.8,2882.9z"/>
<path class="st4" d="M4149,2831.3c0.4-0.1,45.6,20.7,82.9,7.5c37.8-13.3,47.5-33.4,39.2-54c-8-20.2-31.6-32.5-71.3-17.6
	C4160.3,2782.5,4149.1,2831.5,4149,2831.3L4149,2831.3z"/>
<path class="st9" d="M4153.4,2829.1c17.8,6.9,50.1,16,77.3,6.3c20-7,32.6-16.1,37.4-27.1c3-6.7,2.9-14.2-0.3-22.1
	c-8.7-22.1-33.7-27.9-66.7-15.6C4170.1,2782.6,4157.1,2817.1,4153.4,2829.1L4153.4,2829.1z M4204.4,2846.9
	c-21.7,0-42.6-6.6-55.3-11.6c-0.2-0.1-0.4-0.2-0.6-0.2l-25.4,1.3l23-7.8c3.9-13.5,17.6-51.2,52.5-64.6c43.7-16.4,67.9-0.6,75.9,19.6
	c4,9.8,4,19.2,0.2,27.8c-5.7,12.8-19.7,23.3-41.6,31C4223.7,2845.6,4214,2846.9,4204.4,2846.9L4204.4,2846.9z"/>
<path class="st4" d="M4054,2825.7c0.4-0.2,48.7,12,83-7.8c34.8-20,40.5-41.7,28.3-60.4c-11.8-18.4-37.4-26.1-73.5-4.2
	C4056,2775.6,4054.1,2825.8,4054,2825.7L4054,2825.7z"/>
<path class="st9" d="M4057.8,2822.7c31.1,5.7,58.5,2.9,77.3-8c18.3-10.5,28.9-21.7,31.7-33.3c1.7-7.2,0.2-14.6-4.5-21.9
	c-10-15.6-33.3-24.6-68.7-3.1C4066.1,2773.6,4059.4,2808.7,4057.8,2822.7L4057.8,2822.7z M4088,2832.9c-13,0-24.8-1.7-33.3-3.3
	c-0.6-0.1-0.9-0.2-1.1-0.2l0.4-2.8l-0.4-0.9l-3.1-0.4l0.1-0.4c1.1-12.4,7-54.4,39.5-74.6c39.7-24.2,66.5-13.1,78.3,5.3
	c5.9,9,7.7,18.3,5.5,27.6c-3.2,13.6-15,26.4-35.1,37.9C4123,2830.1,4104.6,2832.9,4088,2832.9L4088,2832.9z"/>
<path class="st4" d="M3954.6,2823.8c0.4-0.3,49.4,10.1,83.2-11c34.3-21.3,39.5-43.1,27-61.3c-12.1-18-37.8-24.8-73.7-1.5
	C3955.4,2773.6,3954.7,2823.9,3954.6,2823.8L3954.6,2823.8z"/>
<path class="st9" d="M3958.4,2820.6c31.5,4.5,58.9,0.7,77.5-10.9c18.1-11.3,28.5-22.9,30.9-34.6c1.5-7.2-0.2-14.5-5-21.5
	c-13.3-19.7-39-19.9-68.9-0.5C3965.1,2771.6,3959.5,2808.1,3958.4,2820.6L3958.4,2820.6z M3932,2833.6l19.1-12
	c0.9-14.1,6.5-53.9,38-74.7c39.5-25.6,66.5-15.5,78.6,2.5c6,8.7,8,17.9,6.1,27.2c-2.8,13.8-14.4,27-34.2,39.4
	c-20.3,12.7-50.2,16.9-84.1,11.6c-0.3,0-0.5-0.1-0.7-0.1L3932,2833.6L3932,2833.6z"/>
<path class="st4" d="M4234.1,2705c-0.1,0.1-1.3,49.5,29.5,78.3c30.6,29,54.1,29.8,71.7,16.7c17.2-12.9,21.7-35.7-10-67.1
	C4293.2,2701.1,4233.8,2704.6,4234.1,2705L4234.1,2705z"/>
<path class="st9" d="M4237.7,2708.5c0.3,11,3.3,48.8,28.3,72.1c26.1,24.7,48.7,30.2,67.2,16.4c7.3-5.5,11.4-12.2,11.9-20
	c0.8-11.9-6.9-26.3-22.3-41.5C4296.2,2709.1,4249.7,2708.2,4237.7,2708.5L4237.7,2708.5z M4311.8,2811.8c-15.4,0-32.4-8.7-50.6-25.9
	c-29.1-27.1-30.7-70.8-30.7-79.3c0-0.1,0-0.1,0-0.1l-0.3-0.3l1-4.1l2-0.6c3.4-1,62.6-2.9,94.7,28.7c17.2,17,25.4,32.9,24.4,47.3
	c-0.7,9.9-5.8,18.6-14.8,25.4C4329.4,2808.8,4320.9,2811.8,4311.8,2811.8L4311.8,2811.8z"/>
<path class="st4" d="M4118.1,2679.7c-0.1,0.1,4.2,49.4,38.3,74.4c33.9,25.3,57.4,23.4,73.5,8.3c15.7-14.8,17.6-38-17.5-65.5
	C4176.8,2669,4117.7,2679.4,4118.1,2679.7L4118.1,2679.7z"/>
<path class="st9" d="M4122,2682.7c1.6,10.9,8.7,48,36.5,68.4c28.9,21.5,52.1,24.4,69.1,8.6c6.7-6.3,9.9-13.4,9.6-21.2
	c-0.5-12-9.8-25.3-26.9-38.7C4180.7,2676.6,4134,2681.1,4122,2682.7L4122,2682.7z M4202.8,2777.2c-14.3,0-30.5-6.7-48.5-20.2
	c-32.8-24.1-39-69.4-39.6-75.4l-0.4-0.3l0.5-4.2l1.9-0.8c3.3-1.4,62.1-10.3,97.9,17.6c19.1,15,29.1,29.8,29.7,44.2
	c0.4,9.9-3.7,19.2-11.9,26.9C4223.7,2773.1,4213.9,2777.2,4202.8,2777.2L4202.8,2777.2z"/>
<path class="st4" d="M4001.1,2672.6c-0.1,0.2,9.7,48.6,46.4,69.6c36.6,21.3,59.9,16.7,74.3-0.1c14.1-16.5,13.4-39.7-24.7-63.1
	C4058.6,2655.3,4000.7,2672.3,4001.1,2672.6L4001.1,2672.6z"/>
<path class="st9" d="M4005.4,2675.2c2.7,10.7,13.9,46.7,43.9,63.8c31.2,18.1,54.8,18.4,69.9,0.7c6-7,8.4-14.5,7.3-22.1
	c-1.8-11.8-12.6-24.1-31.1-35.4C4063.3,2662.4,4017.1,2672.2,4005.4,2675.2L4005.4,2675.2z M4090.9,2760.2c-13,0-28.1-5-45.2-14.8
	c-35.2-20-46.4-64-47.9-70.4l-1.7-1l1.8-3.1c0.7-1.2,1.1-1.9,12.1-4.2c5.5-1.2,14.2-2.7,24.5-3.4c18-1.2,43.7,0,64.4,12.7
	c20.7,12.7,32.3,26.4,34.5,40.6c1.5,9.8-1.6,19.5-8.9,28.1C4115.6,2754.9,4104.4,2760.2,4090.9,2760.2L4090.9,2760.2z"/>
<path class="st4" d="M3894.5,2684.1c-0.1,0.2,14.4,47.3,53.2,64.4c38.6,17.3,61.3,10.4,74-7.8c12.4-17.9,9.4-40.9-30.8-60.2
	C3950.1,2660.9,3894,2683.8,3894.5,2684.1L3894.5,2684.1z"/>
<path class="st9" d="M3899,2686.2c3.8,10.3,18.5,45,50.1,58.9c32.9,14.8,56.3,12.6,69.7-6.6c5.3-7.6,7-15.3,5-22.8
	c-3-11.6-14.9-22.7-34.4-32.1C3955.4,2667.5,3910.4,2682,3899,2686.2L3899,2686.2z M3986.9,2762.1c-11.7,0-25.3-3.5-40.7-10.4
	c-37.1-16.3-52.4-58.3-54.7-65.1l-1.8-0.9l1.5-3.3c0.6-1.2,0.9-2,11.6-5.4c5.4-1.7,13.9-4.1,24.1-5.9c17.8-3.1,43.6-4.5,65.4,5.9
	c21.8,10.5,34.7,22.9,38.3,36.8c2.5,9.5,0.4,19.5-6.1,28.9C4015.6,2755.7,4003,2762.1,3986.9,2762.1L3986.9,2762.1z"/>
<path class="st4" d="M3856.7,2834.8c0.4-0.3,50.6,5.1,82.5-19.3c32.4-24.6,35.5-46.9,21.4-63.8c-13.8-16.7-40.1-20.9-74,5.9
	C3852.9,2784.7,3856.8,2834.9,3856.7,2834.8L3856.7,2834.8z"/>
<path class="st9" d="M3860.2,2831.3c32.1,1.3,59.3-5.3,76.9-18.7c17.1-13,26.5-25.7,27.8-37.6c0.8-7.3-1.5-14.3-7-20.8
	c-15.1-18.3-40.9-15.9-69.1,6.4C3862.3,2781.8,3860.1,2818.6,3860.2,2831.3L3860.2,2831.3z M3836.5,2845.5l16.5-12.5
	c-0.3-11.8,1.1-53.9,31.3-78.2c37.2-29.4,65.2-22,79-5.4c6.7,8.1,9.6,17,8.6,26.4c-1.6,14-11.9,28.4-30.6,42.7
	c-19.2,14.7-48.7,21.8-83.3,20c-0.3,0-0.6,0-0.8,0L3836.5,2845.5L3836.5,2845.5z"/>
<path class="st4" d="M3750.2,2844.7c0.4-0.3,50.3,10.7,85.3-9.8c35.6-20.8,42.1-42.5,31.3-61.1c-10.5-18.3-35.3-25.9-73.7-3.1
	C3754.7,2793.8,3750.1,2844.9,3750.2,2844.7L3750.2,2844.7z"/>
<path class="st9" d="M3754.2,2841.6c32.1,4.9,60.3,1.4,79.6-9.9c19.1-11.1,30.3-22.8,33.4-34.8c1.8-7.1,0.7-14.3-3.4-21.3
	c-11.4-19.9-37.1-20.6-68.8-1.8C3764.1,2792.4,3756,2830.3,3754.2,2841.6L3754.2,2841.6z M3781.4,2851.1c-9.6,0-19.7-0.8-30.2-2.5
	c-0.1,0-0.2,0-0.3,0l-3.2,1.9l-1-4.9c-0.1-0.5,4.3-53.7,44.7-78c52.7-31.3,73.5-4.5,78.6,4.4c5.1,8.8,6.5,17.8,4.1,26.9
	c-3.6,13.9-16,27.1-36.7,39.3C3822.7,2846.6,3803.4,2851.1,3781.4,2851.1L3781.4,2851.1z"/>
<path class="st4" d="M3768.2,2715c0.1,0.2,28.4,41.1,71.1,47.5c42.7,6.7,63.2-5.7,70.4-26.4c7-20.3-2.8-41.6-48.2-49.6
	C3815.4,2678.6,3767.7,2715,3768.2,2715L3768.2,2715z"/>
<path class="st9" d="M3773.2,2715.8c7.1,9.1,32,37.9,66.6,43.1c36.6,5.8,58.9-2.3,66.6-24c2.9-8.3,2.4-15.7-1.3-22.2
	c-6.2-10.7-21.4-18.5-44.2-22.5C3822.4,2683.5,3783.4,2708.6,3773.2,2715.8L3773.2,2715.8z M3861,2768c-6.8,0-14.2-0.6-22.3-1.9
	c-38.9-5.9-65.9-39-72.4-47.7l-0.7-0.1l-1.6-4l1.3-1.7c2.2-2.8,50.2-37.8,96.7-29.8c25.2,4.4,41.8,13.2,49.1,26
	c4.8,8.3,5.4,18.1,1.9,28.4C3905.9,2757.7,3888.4,2768,3861,2768L3861,2768z"/>
<path class="st4" d="M3659.7,2792.7c0.3-0.1,46.6,23,88.5,11.4c42.3-11.6,55.5-31.1,51.9-52.1c-3.6-20.6-24-34.8-70-22.3
	C3683.6,2742.6,3659.3,2792.9,3659.7,2792.7L3659.7,2792.7z"/>
<path class="st9" d="M3664.6,2790.9c15.9,6.7,50.7,18.5,82.6,9.7c25.1-6.9,54-20.8,49.3-48c-1.4-7.9-5.2-13.9-11.5-18
	c-11.4-7.4-30.1-7.9-54-1.4C3693.3,2743.7,3670.7,2780,3664.6,2790.9L3664.6,2790.9z M3722.7,2811.1c-27,0-51.9-9.4-63.4-14.5
	l-0.5,0.1l-3-2.4l0.4-2.2c0.1-0.5,24.1-52.3,73-65.8c26.4-7.2,46.5-6.4,59.7,2.2c7.9,5.2,13,13.1,14.7,22.9
	c3.1,18-3.8,42.4-54.5,56.3C3740.3,2810.1,3731.4,2811.1,3722.7,2811.1L3722.7,2811.1z"/>
<path class="st4" d="M5258.2,2314.7c-17.1,19.1-33.5,38.6-49.4,58.4c-85.2,21.6-162.7,54.4-230.6,95.3
	c-74,38.5-138,86.6-190.8,140.3c0.2,0-22.7,31.5-44.2,67.3c-22.3,35.6-43.3,75.6-57.1,88.8c-28.3,26.8-25.7-48.5-24.9-48.8
	c0.2-0.1-22.7-19.4-19.7-48.9c0.9-14.2,45.5-82.6,106.1-137.2c58-56.2,131.9-98.6,131.3-98.1c59.5-41.7,126.9-77.6,201.1-105.1
	C5137.3,2317.5,5196.9,2313.3,5258.2,2314.7L5258.2,2314.7z"/>
<path class="st9" d="M4664.4,2717.8c-0.7,7.8-0.2,43.6,8.9,48.6c2.9,1.6,7.2-1.4,10.2-4.3c9.1-8.7,22.3-30.9,36.2-54.4
	c6.6-11.1,13.4-22.5,20.3-33.7c16.9-28.1,34.8-53.7,41.5-63.3c0.6-0.8,1.1-1.6,1.5-2.2l-0.2-0.4l1.9-2
	c54.9-55.8,119.4-103.2,191.6-140.9c70.3-42.3,147.8-74.4,230.3-95.4c14-17.5,28.6-34.8,43.5-51.7c-57-0.9-113.9,3.2-169.4,12
	c-71.8,26.7-139.1,61.9-199.9,104.6l-1.5-2l1,2.3c-0.6,0.3-73.4,42.2-130.4,97.4c-61.6,55.5-104.2,122.5-105,134.7
	c-2.2,21.9,10.4,37.9,18.1,45.5c0.7,0.7,1.9,1.8,1.5,3.8L4664.4,2717.8L4664.4,2717.8z M4675.2,2774.3c-1.6,0-3.1-0.3-4.5-1
	c-13.7-6.4-13.8-41.7-13.5-52.4c0.1-1.4,0.1-2.6,0.1-3.5c-14.2-14.4-21.2-32.8-19.4-50.6c1-15.4,46.9-85.2,107.3-139.5
	c30-29,64.2-54.3,87.6-70.3c13.5-9.2,24.7-16.4,31.8-20.7c7.3-4.5,10.7-6.6,12.5-7.5c61.4-43,129.2-78.5,201.7-105.4l0.7-0.2
	c58.6-9.4,118.7-13.4,178.9-12l7.8,0.2l-5.3,5.9c-16.9,18.9-33.5,38.6-49.3,58.3l-0.8,0.9l-1.2,0.3
	c-82.3,20.8-159.6,52.8-229.7,94.9l-0.2,0.1c-71.6,37.3-135.4,84.2-189.8,139.4c-0.6,0.9-1.4,2.1-2.6,3.8
	c-6.7,9.6-24.4,35-41.3,62.9c-7,11.1-13.7,22.5-20.3,33.5c-14.8,25-27.6,46.5-37.5,56C4683.7,2772,4679.2,2774.3,4675.2,2774.3
	L4675.2,2774.3z"/>
<path class="st4" d="M4823.6,2647.7c-0.3,0.2-22.1,45.8-59.7,61.7c-38,16.2-59.4,9.4-70-9.2c-10.3-18.1-4.3-42.1,38.3-60.6
	C4775.7,2621.1,4824.2,2647.5,4823.6,2647.7L4823.6,2647.7z"/>
<path class="st9" d="M4766,2636.6c-10.5,0-21.6,1.7-32.4,6.3c-21.6,9.4-35.2,21-39.3,33.5c-2.3,7.2-1.4,14.7,2.6,21.8
	c10.9,19,32.9,21.6,65.6,7.7c28.5-12,48-42.1,56.1-56.8C4811.3,2645.6,4790.2,2636.6,4766,2636.6L4766,2636.6z M4726.9,2722
	c-19.6,0-30.3-9.8-36.1-20c-5.1-9-6.2-18.6-3.2-27.8c4.8-14.8,19.4-27.6,43.3-38c43.2-18.4,92.1,6,95.1,8.7l1.7,1.5l-1.1,4.4
	l-0.6,0.1c-7.8,14.6-28.8,48.4-60.6,61.8C4749.7,2719.3,4737.1,2722,4726.9,2722L4726.9,2722z"/>
<path class="st4" d="M4888.3,2577.2c-0.4,0.2-31.3,42.3-74.6,53.2c-43.7,11.3-65.7,1.9-73.6-18c-7.7-19.4,3.2-42.7,51.9-55.6
	C4841.6,2544.1,4888.9,2577.2,4888.3,2577.2L4888.3,2577.2z"/>
<path class="st9" d="M4815.5,2557.6c-7.3,0-14.9,0.8-22.5,2.8c-32.5,8.6-44.5,21-48.9,29.9c-3.3,6.7-3.5,13.7-0.6,20.8
	c8.1,20.3,31.4,25.6,69.4,15.8c32.9-8.3,58.8-35.4,70.1-48.9C4874.2,2572.6,4846.9,2557.6,4815.5,2557.6L4815.5,2557.6z
	 M4780.4,2639c-22.3,0-36.9-8.4-43.5-25.1c-3.6-9.1-3.3-18.4,0.8-26.9c7.2-14.7,25.7-26.3,53.5-33.7c52.1-13.4,99.5,21.2,99.8,21.5
	l1.4,1.8l-1.8,4.2l-0.6,0c-10.8,13.3-38.9,44-75.4,53.2C4801.7,2637.4,4790.3,2639,4780.4,2639L4780.4,2639z"/>
<path class="st4" d="M4981,2520.7c-0.5,0.1-42.1,35.7-90.3,38.9c-48.8,3.5-70-9.4-73.7-30.5c-3.7-20.5,13.4-41.9,67.4-45.9
	C4939.2,2479.6,4981.6,2520.8,4981,2520.7L4981,2520.7z"/>
<path class="st9" d="M4891.3,2486.6c-2.2,0-4.4,0.1-6.6,0.2c-37.4,2.8-53,13.5-59.4,22.1c-4.4,5.8-6,12.4-4.7,19.5
	c3.8,21.3,27.3,30.5,70,27.5c36.7-2.5,70.1-24.4,85-35.5C4965.7,2512.1,4932.6,2486.6,4891.3,2486.6L4891.3,2486.6z M4875.6,2563.8
	c-37.3,0-58.2-11.4-62.1-34.1c-1.6-9.1,0.5-17.8,6.1-25.3c10.5-13.9,32.9-22.6,64.6-24.9c55-3.7,98.4,36.3,100,39.3l1.1,2l-2.7,3.8
	l-0.7-0.1c-14.1,10.9-50.5,35.9-91,38.6C4885.5,2563.6,4880.4,2563.8,4875.6,2563.8L4875.6,2563.8z"/>
<path class="st4" d="M5085,2468.3c-0.4,0.1-45.2,32.9-97.2,33c-52.5,0.4-74.8-13.6-78.5-34.9c-3.6-20.6,14.5-41.1,72.1-42
	C5039.9,2424,5085.6,2468.5,5085,2468.3L5085,2468.3z"/>
<path class="st9" d="M4982.5,2428.1c-0.3,0-0.7,0-1,0c-40.6,0.6-57.2,10.8-64,19.3c-4.3,5.4-5.9,11.6-4.7,18.4
	c3.8,21.5,29,32.2,75,31.9c39.8-0.1,75.3-19.5,91.3-29.8C5068.4,2458.3,5030.2,2428.1,4982.5,2428.1L4982.5,2428.1z M4985.9,2505
	c-48.8,0-75.7-12.7-80.1-37.9c-1.6-8.9,0.6-17.3,6.2-24.3c11.1-13.8,35.1-21.4,69.4-21.9c58.1-0.5,105.3,42.9,106.8,45.9l1,2
	l-2.7,3.6l-0.8-0.1c-15.1,10.1-53.8,32.7-97.9,32.7C4987.2,2505,4986.6,2505,4985.9,2505L4985.9,2505z"/>
<path class="st4" d="M4709.6,2534.1c0.6-0.4,43.4,32.7,36.2,72.7c-6.4,39.7-26.7,54.2-50.9,55.3c-24,1.1-44.4-11.7-42.5-52.1
	C4653.8,2569,4709.2,2533.5,4709.6,2534.1L4709.6,2534.1z"/>
<path class="st9" d="M4708.1,2539.1c-11.6,7.5-51,37.8-52.3,71.1c-0.8,17.8,2.7,30.9,10.5,38.9c6.6,6.8,16.1,9.9,28.2,9.4
	c26.2-1.2,42.2-18.8,47.6-52.3c6.1-34-25.9-62.1-32.9-67.8L4708.1,2539.1L4708.1,2539.1L4708.1,2539.1z M4692.1,2665.8
	c-12.8,0-23.3-4-30.7-11.5c-9.3-9.6-13.6-24.5-12.6-44.4c1.5-40.4,51.4-74.9,59.1-78.9l0,0c0.3-0.1,0.5-0.3,0.8-0.3
	c0.1,0,0.1,0,0.1,0l2.6-0.6l0.8,1.5c0.2,0.2,0.4,0.3,0.6,0.5c0.4,0.3,44,33.6,36.4,75.6c-7.5,46.4-33.7,57.3-54.3,58.3
	C4694,2665.8,4693,2665.8,4692.1,2665.8L4692.1,2665.8z"/>
<path class="st4" d="M4793.1,2445.2c0.6-0.3,42.2,37.1,29.4,76.2c-12,38.9-35.9,51.2-62.1,50c-25.9-1.3-45.9-16-38.4-56.2
	C4729.3,2474.2,4792.8,2444.5,4793.1,2445.2L4793.1,2445.2z"/>
<path class="st9" d="M4791.1,2449.8c-12.9,6-59.7,32.4-65.6,65.9c-3.2,17.2-1.4,30.3,5.3,39c6.1,7.9,16.1,12.2,29.7,12.9
	c28.7,1.3,48.4-14.6,58.5-47.4c10.9-33.1-20-64.6-26.6-70.8l-1.4,0.6L4791.1,2449.8L4791.1,2449.8z M4763.8,2575
	c-1.2,0-2.4,0-3.5-0.1c-15.6-0.8-27.7-6.2-35-15.7c-8.1-10.5-10.3-25.6-6.7-44.9c7-39.9,64.3-69.2,73.1-72.6v0
	c0.5-0.2,0.9-0.3,1.4-0.3l2.3-0.2l0.6,1.5c0.6,0.5,1.2,1,1.8,1.6c4.2,3.9,40.8,39.4,28.1,78.1
	C4812.7,2565.4,4785.5,2575,4763.8,2575L4763.8,2575z"/>
<path class="st4" d="M4896,2370.4c0.7-0.2,40.4,41.8,22.1,79.1c-17.5,37.2-44.7,46.8-72.6,42.6c-27.6-4.1-46.9-20.9-33.7-60.1
	C4824.8,2392,4895.8,2369.6,4896,2370.4L4896,2370.4z"/>
<path class="st9" d="M4893.5,2374.7c-13.7,4.2-67.6,25.3-78.3,58.4c-5.5,16.3-5.4,29.2,0.2,38.5c5.3,8.9,15.7,14.6,30.7,16.9
	c30.9,4.6,54-9.1,68.8-40.6c15.5-31.6-13.7-66.5-19.8-73.3l-1.5,0.5L4893.5,2374.7L4893.5,2374.7z M4857.2,2496.6
	c-3.9,0-8-0.3-12.1-0.9c-17-2.5-29.3-9.6-35.8-20.3c-6.7-11.2-7-26.3-0.8-44.7c12.7-39.4,77.1-61.7,86.5-63.9c0.5-0.2,1-0.2,1.5-0.2
	l2.2,0l0.4,1.4c1,0.9,2.1,2.2,3.7,4c6.1,7.1,35.5,44.5,18.6,78.9C4907.3,2481.1,4885.2,2496.6,4857.2,2496.6L4857.2,2496.6z"/>
<path class="st4" d="M5009,2318.7c0.7-0.2,38,46.3,14.7,81.2c-22.5,34.9-52.3,41.1-81.3,33.9c-28.7-7.2-47-26-28.6-63.6
	C4931.9,2331.8,5008.8,2317.9,5009,2318.7L5009,2318.7z"/>
<path class="st9" d="M5006.1,2322.7c-14.4,2.5-74.1,17.4-89.1,49.1c-7.4,15.2-8.9,27.8-4.5,37.5c5.5,12.2,19.8,18.1,30.8,20.9
	c32.3,8.1,58.4-2.8,77.5-32.3c19.7-29.5-7.3-67.8-13-75.2l-1.5,0.4L5006.1,2322.7L5006.1,2322.7z M4962.9,2440.1
	c-6.9,0-14-0.9-21.4-2.8c-18.2-4.6-30.2-13-35.6-24.9c-5.4-11.8-3.8-26.6,4.6-43.8c18-38.1,88.3-52.6,97.9-53.5
	c0.6-0.1,1.1-0.2,1.8,0.1l1.8,0.2l0.3,1.4c1.2,1.3,2.9,3.5,5.3,7.2c9.2,13.8,28.5,48.9,9.1,78
	C5010.4,2427.2,4988.6,2440.1,4962.9,2440.1L4962.9,2440.1z"/>
<path class="st4" d="M5200.7,2432.6c-0.4,0-50.8,27-106.3,20.8c-56.1-6-78.5-22.3-80.5-43.9c-2-20.9,19.2-39.3,80.4-33.5
	C5156.3,2382.4,5201.3,2432.8,5200.7,2432.6L5200.7,2432.6z"/>
<path class="st9" d="M5073,2378.6c-23.7,0-40.9,4.6-49.6,13.5c-4.6,4.7-6.6,10.5-6,17c2,21.7,28,35.4,77.4,40.6
	c43.4,4.9,83.9-11,99.9-18.4c-10.9-11.1-49.6-46.5-100.8-51.7C5086.5,2379,5079.5,2378.6,5073,2378.6L5073,2378.6z M5111.3,2458
	c-5.7,0-11.5-0.3-17.3-0.9c-53.9-5.7-81.3-21.2-83.7-47.2c-0.8-8.7,2-16.6,8.1-22.9c12.8-13.1,39.1-18.1,76.3-14.6
	c61.6,6.3,108.3,55.9,109.4,58.9l0.8,2.1l-3,3.3l-0.8-0.2C5189.1,2442.3,5152.9,2458,5111.3,2458L5111.3,2458z"/>
<path class="st4" d="M5323.9,2396.4c-0.2,0.2-42.4,31.8-100.4,26.8c-58.3-4.5-85.1-20.6-93-42.8c-7.7-21.4,8.2-41.5,70.8-38.8
	C5264.8,2344.5,5324.6,2396.4,5323.9,2396.4L5323.9,2396.4z"/>
<path class="st9" d="M5190.8,2345.1c-28.5,0-48,5.5-55.3,15.7c-3.6,5.1-4.2,11.3-1.6,18.4c8.1,22.9,38.3,36.4,89.9,40.4
	c46.6,4,82.9-16.3,94.2-23.5c-13-10.6-63.2-48.4-116.8-50.8C5197.5,2345.2,5194.1,2345.1,5190.8,2345.1L5190.8,2345.1z
	 M5235.9,2427.4c-4.1,0-8.4-0.2-12.7-0.5c-55.4-4.2-86.8-19-96.1-45.2c-3.4-9.4-2.5-18.2,2.6-25.2c9.7-13.6,34.6-20,71.7-18.5
	c33.5,1.5,65.6,16.4,86.6,28.7c12.1,7.1,21.7,13.9,27.7,18.4c11.7,8.8,11.7,9.6,11.7,11.4v3.5l-2.6,0.1
	C5316.8,2405.7,5282.6,2427.4,5235.9,2427.4L5235.9,2427.4z"/>
<path class="st4" d="M5162.1,2277.6c0.6,0.1,21.5,52.2-15.3,79.1c-36,27.2-69.5,26.4-97.5,12.9c-27.6-13.4-40.1-35.6-6.7-67
	C5076.3,2270.3,5162.3,2276.7,5162.1,2277.6L5162.1,2277.6z"/>
<path class="st9" d="M5142,2280.1c-26.9,0-74.7,3.8-96.9,25.1c-14,13.1-20.3,25-18.8,35.4c1.8,12.2,14.3,20.6,24.5,25.6
	c31.3,15.1,62.8,10.9,93.9-12.5c31.2-22.8,18-64.6,15-72.8l-1.8-0.2l0,0C5154.6,2280.4,5149,2280.1,5142,2280.1L5142,2280.1z
	 M5087.5,2382.3c-13.3,0-26.6-3.1-39.7-9.5c-16.9-8.2-26.7-18.9-28.5-31.1c-1.9-13,5.1-27.1,21-41.9
	c33.1-31.7,111.2-27.6,122.3-25.8l0-0.1c0.5,0.1,1.1,0.1,1.6,0.6l1.9,1.1l-0.2,1.3c0.9,2,2,5.2,3.4,10.8
	c3.6,14.5,8.8,50.6-20.4,71.9C5129,2374.7,5108.2,2382.3,5087.5,2382.3L5087.5,2382.3z"/>
<path class="st4" d="M5354,2300.4c0.3,0.4-16.1,46.3-71.4,53c-55,7.5-88.8-4.6-108.4-25.8c-19.1-20.7-16.4-44.1,40.3-56
	C5271.8,2259.1,5354.6,2299.8,5354,2300.4L5354,2300.4z"/>
<path class="st4" d="M4017,1538.6c10.3,27.1,17.8,54.1,22.8,80.8c42.9,59.7,72.7,129.8,86.5,205.1c18,76.2,19.7,159.7,0.9,243.5
	c-0.5-0.3-14,43.6-39,89.9c-23.5,46.8-58.5,96.1-69.5,118.4c-20.7,46.9,65.8-19.6,64.4-21.7c-0.3,0,31.9-1.3,60.7-34.1
	c16.2-14.4,56.9-115.3,63-207.5c11-92.9-12.4-177.1-10.9-175.7c-11.9-75.5-37.9-146.7-75.8-209.6
	C4089,1592.7,4054.2,1562.9,4017,1538.6L4017,1538.6z"/>
<path class="st9" d="M4128.8,2072.6c-0.2,0.6-0.5,1.3-0.7,2c-4.7,13.2-17.3,48.3-37.1,84.9c-13.7,27.3-31.5,55.7-45.8,78.5
	c-10.3,16.4-19.1,30.6-23.6,39.8c-3.9,8.9-2.7,11.2-2.6,11.4c0.3,0.5,1.5,0.5,1.8,0.5c13.4,0,53.4-30.1,59-36l-0.1-2.2l3.2-0.2
	c3.2-0.2,32.1-3,58.5-33l0.3-0.3c15.3-13.6,55.7-113,61.9-205.2c6.1-51.2,2.8-108-9.8-168.8c-0.8-4-1.2-5.8-1.2-6.9
	c-11.8-74.5-37.1-144.3-75-207.3c-28.2-31.6-59.8-59.4-94-82.7c8.3,23.3,14.8,47.1,19.3,71.1c43,60,72.9,131.2,86.6,205.8
	c18.7,79.1,19,163.9,0.9,244.8l-0.9,4.1L4128.8,2072.6L4128.8,2072.6z M4020.9,2296.3c-4.2,0-6.3-1.9-7.3-3.5
	c-2.3-3.6-1.6-9.3,2.2-17.9c4.7-9.6,13.7-23.9,24-40.5c14.2-22.7,31.9-51,45.5-78c19.6-36.3,32-71,36.7-84.1c0.9-2.5,1.5-4.2,2-5.4
	c17.9-79.9,17.5-163.4-1-241.6c-13.6-74.1-43.3-144.6-85.9-203.9l-0.4-0.6l-0.1-0.7c-5.1-27.1-12.7-54.1-22.6-80.2l-3.6-9.5l8.4,5.5
	c38,24.8,72.9,55,103.8,89.6l0.4,0.5c38.6,64.1,64.3,135,76.2,210.8l0.6,3.9c0.1,0.6,0.3,1.3,0.4,2c12.7,61.5,16.1,119,9.9,170.8
	c-6.1,91.7-46.1,193.2-63.9,209.5c-25.6,29.1-54,34.1-61.3,34.9C4077.4,2265.8,4036.3,2296.3,4020.9,2296.3L4020.9,2296.3z"/>
<path class="st4" d="M4078.8,2074.4c0.4,0.7-29.1,50.3-30.6,93.3c-1.4,43.8,13.6,56.8,37.5,48.2c23.1-8.2,44.4-36.1,40.9-82.3
	C4122.3,2087.8,4078.3,2074.7,4078.8,2074.4L4078.8,2074.4z"/>
<path class="st9" d="M4079.6,2080.2c-17.9,34.7-27.3,64.2-28.2,87.6c-0.7,20.9,2.4,35.1,9.1,42.1c3.3,3.4,7.3,5.1,12.5,5.1l0,0
	c3.4,0,7.3-0.8,11.6-2.3c20.1-7.1,42.2-32,38.7-78.9c-3-31.6-26-47.4-41.4-54.4l-0.1,3.2L4079.6,2080.2L4079.6,2080.2z M4073,2221.7
	L4073,2221.7c-6.9,0-12.7-2.4-17.1-7.1c-8-8.4-11.6-24.2-10.9-47c1.3-37,22.3-77.6,29.2-90.9c0.6-1.2,1.2-2.3,1.5-2.9l0.2-7.5
	l3.4,3.7l0.7-0.6l1.3,2.5c0,0,0,0,0,0c28.7,11.9,46,33.7,48.6,61.4c3.8,50.7-20.8,77.9-43.1,85.8
	C4081.8,2220.8,4077.2,2221.7,4073,2221.7L4073,2221.7z"/>
<path class="st4" d="M4103.7,1973.7c0.5,0.6-16.1,54.3-6.4,94.4c10,40.8,28.2,48.8,49.1,34.6c20.4-13.7,33.5-45,18.5-86.7
	C4149.2,1974.9,4103.3,1974.2,4103.7,1973.7L4103.7,1973.7z"/>
<path class="st9" d="M4105.8,1979.2c-8.8,36.6-10.6,66.3-5.3,88.1c4.3,17.6,12.7,38.6,28.1,38.6c4.8,0,10.2-2,16.1-6
	c17.5-11.8,32.5-40.5,17.2-82.8c-8.2-21.5-27.4-35.5-54-39.5l0.7,3.4L4105.8,1979.2L4105.8,1979.2z M4128.5,2112.5L4128.5,2112.5
	c-15.7,0-27.3-14.7-34.4-43.7c-5.6-23.1-3.7-54.1,5.5-92.2c0.1-0.5,0.2-1,0.4-1.5l-0.9-0.6l1.1-1.6l-1.3-6.6l3.9,2.7l0.5-0.8l2,2.3
	c0.1,0,0.1,0,0.1,0c30.7,3.7,52.9,19.4,62.4,44.2c16.6,46-0.2,77.6-19.7,90.7C4141.3,2110.2,4134.7,2112.5,4128.5,2112.5
	L4128.5,2112.5z"/>
<path class="st4" d="M4096.1,1869.8c0.6,0.4-1.5,54,18.8,87.6c20.8,34,40.8,35.6,57,16.2c15.9-18.8,19.8-51.2-5.8-84.1
	C4140.2,1857.5,4095.9,1870.5,4096.1,1869.8L4096.1,1869.8z"/>
<path class="st9" d="M4099.6,1874.7c1,35.6,7.1,62.8,18.1,81c10.9,17.8,22,27.1,32.3,27.1c6.6,0,13.2-3.8,19.5-11.3
	c13.5-16,20.1-46.5-5.9-79.8c-13.8-16.9-33.4-20.5-47.4-20.5c-6.4,0-11.8,0.7-15.3,1.3l1.6,3.4L4099.6,1874.7L4099.6,1874.7z
	 M4150,1989.5L4150,1989.5c-12.8,0-25.5-10.2-37.8-30.3c-11.8-19.4-18.2-48.3-19.1-85.7c0-0.4,0-0.8,0-1.2l-0.7-0.3l0.4-1.8
	l-2.9-6.3l4.1,1.5l0.2-0.7l2.8,1.7c0.1,0,0.3,0,0.4-0.1c3-0.5,10.1-1.8,19-1.8c15.4,0,37,4,52.5,22.9c28.5,36.6,20.9,70.5,5.7,88.4
	C4166.8,1984.8,4158.6,1989.5,4150,1989.5L4150,1989.5z"/>
<path class="st4" d="M4072.6,1768c0.7,0.4,6.2,51.8,31.3,81.3c25.6,30,45.4,29.9,58.7,9.8c13-19.3,12.5-50.9-17.6-80.1
	C4114.6,1750.7,4072.5,1768.6,4072.6,1768L4072.6,1768z"/>
<path class="st9" d="M4076.7,1772.3c6.1,33.6,16,58.8,29.6,74.7c12.9,15.1,24.4,22.7,34.3,22.7c7.2,0,13.7-4.2,19.2-12.6
	c11.1-16.5,13.3-46.3-17.1-75.8c-10.7-10-24.4-15.1-40.5-15.1c-10.4,0-19.3,2.2-24.3,3.6l2.2,3.2L4076.7,1772.3L4076.7,1772.3z
	 M4140.7,1876.4L4140.7,1876.4c-11.9,0-25.1-8.4-39.2-25c-14.6-17.2-25.1-44-31.4-79.6c-0.1-0.3-0.1-0.7-0.2-1l-0.9-0.2l0.3-1.8
	l-4.1-5.9l4.8,1.1l0.2-1.2l2.9,1.6c0,0,0,0,0.1,0c3.8-1.2,15.3-4.8,29.2-4.8c17.8,0,32.9,5.7,45,16.9c33.4,32.4,30.6,65.7,18,84.4
	C4158.4,1871.2,4150.1,1876.4,4140.7,1876.4L4140.7,1876.4z"/>
<path class="st4" d="M4224.1,2037.3c-0.4,0.1-46,14.6-75.6,56.4c-30.3,41.8-35.8,68.6-25.5,86.8c9.7,17.5,33.8,18.6,69.8-27.3
	C4229.2,2106.1,4224.7,2036.4,4224.1,2037.3L4224.1,2037.3z"/>
<path class="st9" d="M4221.2,2041.9c-11.6,4.5-46.3,20.2-70,53.7c-27.4,37.8-35.6,65-25.3,83.2c2.4,4.4,6.9,9.5,15,9.5
	c13.1,0,30.6-13.2,49.4-37.2C4220.9,2111.5,4221.7,2056.7,4221.2,2041.9L4221.2,2041.9z M4140.8,2194.9L4140.8,2194.9
	c-8.7,0-16.1-4.6-20.6-12.9c-11.9-21-3.7-49.7,25.7-90.4c27.7-39.1,68.6-54.6,76.1-57.2l0.3-0.5l3.8,0l0.9,1.9
	c1.2,2.6,4.8,72.3-31.7,119.4C4175,2181.2,4156.2,2194.9,4140.8,2194.9L4140.8,2194.9z"/>
<path class="st4" d="M4235.2,1892.8c-0.3,0.2-41.7,24.1-60.9,69.7c-19.8,45.8-18.8,72-4.5,86.9c13.5,14.4,36.9,10.4,61.1-40.5
	C4255.3,1956.9,4235.5,1891.9,4235.2,1892.8L4235.2,1892.8z"/>
<path class="st9" d="M4233.4,1897.9c-10.4,6.9-40.7,29.4-56.1,65.9c-17.8,41.1-19.4,68.3-5.1,83.3c3.9,4.1,8.3,6.2,13.1,6.2l0,0
	c7.8,0,23.8-6,42.8-45.8C4248.5,1963.8,4237.1,1911.8,4233.4,1897.9L4233.4,1897.9z M4185.2,2060L4185.2,2060
	c-6.5,0-12.7-2.9-17.8-8.2c-16.6-17.4-15.4-46.1,3.8-90.6c17.8-42.3,53.8-66.1,61.2-70.6l0.4-1.1l4.1,0l1,1.6
	c2,3.3,20.1,67.7-4.1,119.4C4214.4,2051.4,4196.7,2060,4185.2,2060L4185.2,2060z"/>
<path class="st4" d="M4211.6,1757.6c-0.3,0.3-35.7,32.1-44.9,79.3c-9.7,47.5-2.9,71.7,14.2,82.7c16.3,10.6,38.1,2.1,50.9-51.1
	C4244.5,1814.2,4211.7,1756.6,4211.6,1757.6L4211.6,1757.6z"/>
<path class="st9" d="M4211,1762.8c-8.9,8.9-33.7,36.7-41.1,74.7c-8.6,42.2-4.5,68.2,12.8,79.2c3.5,2.3,7.2,3.5,10.7,3.5
	c14.4,0,27.2-19.1,35.3-52.5C4238.8,1824,4218.1,1776,4211,1762.8L4211,1762.8z M4193.4,1926.9L4193.4,1926.9
	c-4.8,0-9.6-1.5-14.2-4.5c-20.1-12.9-25.1-40.3-15.7-86.2c8.5-43.6,38.7-74.3,45-80.3l0.2-1.7l2.8,0c0.7,0,1.8,0.2,2.7,1.4
	c0.4,0.5,33.9,57.2,20.7,113.7C4222.9,1919.5,4203.7,1926.9,4193.4,1926.9L4193.4,1926.9z"/>
<path class="st4" d="M4161.8,1648.3c-0.2,0.3-29.1,38.1-29.5,84.6c-0.9,46.8,10.3,68.2,29.2,75.3c18,6.8,37.8-5.4,40.5-58.3
	C4204.3,1695.7,4161.7,1647.3,4161.8,1648.3L4161.8,1648.3z"/>
<path class="st9" d="M4162.2,1653.5c-6.9,10.2-26.3,42.1-26.7,79.4c-0.8,42,7.8,64.9,27.1,72.2c2.7,1,5.3,1.5,7.8,1.5
	c16.1,0,26.4-20.7,28.3-56.9C4200.6,1706.2,4171.6,1664.6,4162.2,1653.5L4162.2,1653.5z M4170.4,1813.3L4170.4,1813.3
	c-3.3,0-6.6-0.6-10-1.9c-22.2-8.3-32.2-33.3-31.4-78.5c0.4-42.8,24.5-78.6,29.5-85.6v-0.3l1.9-2l1.4,0c1.5,0,2.4,0.9,3.2,1.8
	c0.4,0.5,42.7,48.3,40.2,103.3C4202.3,1807.1,4179.9,1813.3,4170.4,1813.3L4170.4,1813.3z"/>
<path class="st4" d="M4028.7,1679.1c0.7,0.3,15.8,48,45.9,70.8c30.7,23.3,50.1,19.3,59.4-2.3c9.1-20.9,2.7-51-32.2-72.8
	C4066.6,1653.8,4028.7,1679.7,4028.7,1679.1L4028.7,1679.1z"/>
<path class="st9" d="M4033.6,1682.6c12.2,30.6,26.6,52.4,42.8,64.7c13.2,10,24.6,15.1,33.7,15.1c9.2,0,16.2-5.4,20.7-16.1
	c7.8-17.9,4.4-46.6-30.9-68.7c-8.6-5.1-18.2-7.7-28.5-7.7c-11.9,0-24.4,3.4-37.2,10l2.9,2.7L4033.6,1682.6L4033.6,1682.6z
	 M4110.2,1769.1L4110.2,1769.1c-10.6,0-23.2-5.5-37.6-16.4c-17.5-13.3-32.9-36.7-45.7-69.4c-0.1-0.3-0.2-0.6-0.3-0.9l-1,0l-0.1-1.8
	l-5-4.8l4.8,0l-0.1-1.5l3.3,1.2c14.7-8.1,29.2-12.2,43-12.2c11.5,0,22.2,2.9,31.8,8.7c36.5,22.8,43.1,55.1,33.6,77.1
	C4131.3,1762.1,4122.1,1769.1,4110.2,1769.1L4110.2,1769.1z"/>
<path class="st4" d="M3972.5,1589.9c0.8,0.4,16.9,47.4,47.4,70c31.2,23.4,51,21.6,61,2.6c9.8-18.2,4.4-47.1-32-71.6
	C4012,1567.1,3972.3,1590.2,3972.5,1589.9L3972.5,1589.9z"/>
<path class="st9" d="M3976.8,1591.5c0,0,0,0.1,0.1,0.1c13.1,31.1,28.2,53.2,44.9,65.6c14.7,11,27.1,16.5,36.8,16.5
	c8.5,0,14.9-4.2,19.4-12.8c8.5-15.7,5.5-42.7-31-67.2c-10.5-6.8-22.4-10.3-35.2-10.3C3996.9,1583.5,3984.2,1588.1,3976.8,1591.5
	L3976.8,1591.5z M4058.6,1680.5C4058.6,1680.5,4058.6,1680.5,4058.6,1680.5c-11.2,0-24.9-6-40.7-17.8
	c-17.7-13.2-33.5-36.2-47.1-68.4c-0.3-0.8-0.7-1.6-0.9-2.1l-5.6-3.9l7.1-1.6c7.3-3.7,22.2-9.9,40.3-9.9c14.1,0,27.2,3.8,38.8,11.4
	c37.6,25.3,43.7,56.4,33.1,76C4078,1675,4069.6,1680.5,4058.6,1680.5L4058.6,1680.5z"/>
<path class="st4" d="M4075.1,1538c0.1,0.5-12.2,49.2,2.1,92.7c14.3,44.2,31.2,59.6,50.7,57.8c18.5-1.6,32.3-22.2,16.8-73.2
	C4128.4,1563.4,4074.7,1537.1,4075.1,1538L4075.1,1538z"/>
<path class="st9" d="M4077.5,1542.8c-3.3,17-8,53.7,2.9,86.8c12.1,37.5,26.7,55.7,44.7,55.7l0,0c0.8,0,1.7,0,2.6-0.1
	c6.4-0.6,11.6-3.7,15.1-9c5.3-8.1,9.4-25-1.2-59.9C4128.2,1573.6,4089,1549.2,4077.5,1542.8L4077.5,1542.8z M4125.1,1692
	L4125.1,1692c-21.2,0-37.8-19.7-50.9-60.3c-12.1-36.7-5.8-77.3-2.5-93.2l-0.3-0.6l1.9-3.3l1.9,0c2.6,0,56,26.6,72.7,79.7
	c11.4,37.4,6.5,56.3,0.4,65.6c-4.6,7.1-11.6,11.2-20,11.9C4127.2,1692,4126.1,1692,4125.1,1692L4125.1,1692z"/>
<path class="st4" d="M3955.7,1484.3c0.8,0.5,15,52.4,45.2,82.9c30.8,31.3,51.4,35,65.2,20.7c13.2-13.6,12.9-41.9-23.6-77.8
	C4004.8,1474.4,3955.1,1484.2,3955.7,1484.3L3955.7,1484.3z"/>
<path class="st9" d="M3960.1,1487c11.9,34.8,26.4,61.1,43,77.9c18.1,18.4,33.3,27.8,45.1,27.8l0,0c5.9,0,10.9-2.3,15.5-7
	c4.7-4.8,7.1-11.4,7-19c-0.1-11.1-5.6-29.4-30.6-54c-24-22.9-53.3-26.3-68.7-26.3C3966.6,1486.3,3962.7,1486.7,3960.1,1487
	L3960.1,1487z M4048.2,1599.3L4048.2,1599.3c-13.8,0-30-9.7-49.7-29.7c-17.4-17.7-32.5-44.9-44.7-80.9c-0.2-0.5-0.4-1.1-0.5-1.5
	l-1.2-0.3l0.3-3c0.2-1.8,0.5-4.3,19-4.3c16.3,0,47.5,3.7,73.2,28.1c26.7,26.2,32.5,46.4,32.6,58.7c0.1,9.4-3,17.7-8.9,23.8
	C4062.6,1596.3,4055.8,1599.3,4048.2,1599.3L4048.2,1599.3z"/>
<path class="st4" d="M2955.5,1476.4c0,0,63.5,24.4,109.8-2.6c46.4-27,52.4-58.1,38.1-83.6c-14.3-25.6-43.5-36.1-89.8-9
	C2967.2,1408.2,2955.5,1476.4,2955.5,1476.4L2955.5,1476.4z"/>
<path class="st9" d="M2961.3,1473c8.4,2.7,28.8,8.4,51.6,8.4c19.4,0,36.3-4.1,50-12.1c38.5-22.4,51.4-49.7,36.3-76.7
	c-8.3-14.8-20.7-22.3-36.9-22.3c-13.3,0-28.8,5.1-46.1,15.2C2978.8,1407.3,2964.7,1458,2961.3,1473L2961.3,1473z M3012.9,1491.6
	C3012.9,1491.6,3012.9,1491.6,3012.9,1491.6c-31.6,0-58-10-59.1-10.4l-3.9-1.5l0.7-4.2c0.5-2.9,12.7-70.9,60.6-98.8
	c18.8-11,36-16.6,51.1-16.6c19.8,0,35.5,9.5,45.6,27.5c8.5,15.3,21.7,54.6-40,90.6C3052.5,1487.1,3034.1,1491.6,3012.9,1491.6
	L3012.9,1491.6z"/>
<path class="st4" d="M2988.2,1245.5c0,0,67.6-4.8,104.5,34.7c36.9,39.5,33.9,71,13.1,91.3c-20.9,20.3-51.7,21.8-88.6-17.7
	C2980.4,1314.3,2988.2,1245.5,2988.2,1245.5L2988.2,1245.5z"/>
<path class="st9" d="M2992.8,1250.4c-0.9,15.4-1.6,68.2,28,99.9c18.6,20,36.4,30.1,52.8,30.1c10.5,0,20.2-4.2,28.8-12.6
	c22-21.5,17.3-51.3-13.3-84.1c-28.1-30.1-75-33.3-93.9-33.3C2994.4,1250.4,2993.6,1250.4,2992.8,1250.4L2992.8,1250.4z
	 M3073.6,1390.6c-19.2,0-39.4-11.2-60-33.3c-38-40.8-30.7-109.5-30.3-112.4l0.5-4.2l4.1-0.3c0.1,0,2.8-0.2,7.4-0.2
	c20.2,0,70.4,3.6,101.1,36.5c49,52.5,25.4,86.4,12.9,98.5C3098.9,1385.3,3086.6,1390.6,3073.6,1390.6L3073.6,1390.6z"/>
<path class="st4" d="M2868.2,1331.8c0,0,55.9-40.4,108-26.1c52.1,14.3,65.7,43.1,58.2,71.8c-7.6,28.7-33.5,46.6-85.6,32.3
	C2896.8,1395.4,2868.2,1331.8,2868.2,1331.8L2868.2,1331.8z"/>
<path class="st9" d="M2874.8,1333.5c7.1,13.8,33.6,59.7,75.4,71.2c11.8,3.2,22.5,4.9,32,4.9c25.2,0,41.6-11.6,47.4-33.5
	c3.7-13.9,1.7-26.3-5.9-36.9c-8.9-12.5-25.3-22.1-48.7-28.6c-7-1.9-14.5-2.9-22.3-2.9C2918.1,1307.7,2885.4,1326.7,2874.8,1333.5
	L2874.8,1333.5z M2982.2,1420c-10.4,0-22-1.8-34.7-5.2c-53.8-14.8-82.7-78.1-83.9-80.8l-1.7-3.9l3.4-2.5
	c1.7-1.2,42.2-30.1,87.3-30.1c8.7,0,17.1,1.1,24.9,3.3c25.6,7.1,43.9,18,54.2,32.4c9.3,13.1,11.9,28.9,7.5,45.7
	C3032.3,1405.4,3012,1420,2982.2,1420L2982.2,1420z"/>
<path class="st4" d="M5827.8,1676.1c0,0-49.9,47-47.1,101.5c2.8,54.5,27.2,74,56,72.4c28.8-1.5,51-23.5,48.2-78
	C5882.1,1717.5,5827.8,1676.1,5827.8,1676.1L5827.8,1676.1z"/>
<path class="st9" d="M5828.1,1682.9c-10.5,11.1-44.7,50.6-42.4,94.4c1.3,24.5,7,42.7,17,54.1c8.5,9.7,19.8,14.2,33.8,13.5
	c30.4-1.6,45.9-27.4,43.5-72.6C5877.7,1728.5,5839.7,1692.8,5828.1,1682.9L5828.1,1682.9z M5833.6,1855.2c-15.4,0-28.6-5.8-38.3-17
	c-11.6-13.2-18.1-33.5-19.5-60.4c-2.9-56.3,46.5-103.5,48.6-105.5l3-2.9l3.3,2.5c2.3,1.7,56.3,43.5,59.2,99.7
	c3.7,72.5-35.8,82.4-53,83.3C5835.8,1855.2,5834.7,1855.2,5833.6,1855.2L5833.6,1855.2z"/>
<path class="st4" d="M6014.9,1809.8c0,0-26.2,63.9-77.3,79.8c-51.1,15.9-77.3-0.9-85.7-29.1c-8.4-28.2,4.2-57.1,55.2-73
	C5958.3,1771.6,6014.9,1809.8,6014.9,1809.8L6014.9,1809.8z"/>
<path class="st9" d="M5933.7,1788.8c-8.3,0-16.8,1.1-25.1,3.6c-22.9,7.1-38.8,17.2-47.3,29.9c-7.2,10.8-8.7,23.1-4.7,36.7
	c4.1,13.6,12.1,23,23.9,27.8c13.9,5.7,32.6,5,55.5-2.2c41-12.8,65.7-59.1,72.3-73C5998.1,1805.6,5966.8,1788.8,5933.7,1788.8
	L5933.7,1788.8z M5901.9,1900.9c-9.3,0-17.7-1.5-25-4.5c-14.5-6-24.8-17.8-29.7-34.3c-4.9-16.5-2.8-32.2,6-45.4
	c9.8-14.7,27.5-26.1,52.6-33.9c52.7-16.4,109.5,21.2,111.9,22.8l3.4,2.3l-1.6,3.9c-1.1,2.7-27.7,66.3-80.4,82.8
	C5925.4,1898.7,5913,1900.9,5901.9,1900.9L5901.9,1900.9z"/>
<path class="st4" d="M5993.4,1661.4c0,0,10.2,69.2-25.7,110.4c-35.9,41.1-67.2,40.7-88.9,20.8c-21.7-19.8-25.7-51.5,10.3-92.6
	C5924.9,1658.9,5993.4,1661.4,5993.4,1661.4L5993.4,1661.4z"/>
<path class="st9" d="M5988.9,1666.6c-15.3,0.3-67.3,3.8-96.1,36.9c-29.8,34.1-33.6,64.4-10.7,85.4c10.5,9.6,22.3,13.4,34.9,11.2
	c15-2.5,30.7-13.2,46.9-31.6C5992.8,1735.4,5990.3,1682.1,5988.9,1666.6L5988.9,1666.6z M5910.3,1810.9c-12.6,0-24.5-4.9-34.9-14.4
	c-13-11.8-37.9-45.2,9.9-99.9c37.1-42.4,105.4-40.4,108.3-40.3l4.2,0.2l0.6,4.2c0.4,2.9,10.1,72.1-27,114.6
	c-17.7,20.2-35.4,32-52.7,34.9C5915.9,1810.7,5913.1,1810.9,5910.3,1810.9L5910.3,1810.9z"/>
<path class="st4" d="M4203.1,2439.8c0,0,9.6,68.6,55.1,97.2c45.5,28.6,75,19,90.1-6.1c15.1-25.1,10-56.3-35.5-84.9
	C4267.3,2417.5,4203.1,2439.8,4203.1,2439.8L4203.1,2439.8z"/>
<path class="st9" d="M4208.8,2443.3c3,15.1,15.5,66.3,52,89.3c20.4,12.8,38.3,18.3,53.2,16.4c12.6-1.6,22.7-8.6,30-20.8
	c15.9-26.5,3.9-54.2-33.9-77.9C4273.6,2427.4,4223.3,2439.2,4208.8,2443.3L4208.8,2443.3z M4308.1,2559.5
	c-15.5,0-33.1-6.1-52.5-18.3c-47-29.5-57-97.9-57.4-100.8l-0.6-4.2l3.9-1.4c2.7-0.9,66.9-22.7,113.9,6.7
	c60.5,38,46.1,76.9,37.1,91.9c-8.8,14.7-21.7,23.5-37.2,25.5C4313,2559.4,4310.6,2559.5,4308.1,2559.5L4308.1,2559.5z"/>
<path class="st4" d="M4416.9,2358c0,0,36.7,58.3,20.5,110.3c-16.1,52-44.5,64.6-72,55.7c-27.5-8.9-43.6-35.9-27.5-87.9
	C4354.1,2384.1,4416.9,2358,4416.9,2358L4416.9,2358z"/>
<path class="st9" d="M4414.9,2364.5c-13.7,6.6-59.2,31.4-72.2,73.1c-7.2,23.3-8.2,42.4-2.7,56.7c4.6,12.1,13.7,20.5,27,24.8
	c29,9.4,52.4-9.2,65.7-52.4C4445.7,2425,4422.4,2377.9,4414.9,2364.5L4414.9,2364.5z M4381.1,2531.6c-6.8,0-12.8-1.4-17.1-2.8
	c-16.1-5.2-27.6-15.9-33.2-30.8c-6.3-16.5-5.4-37.9,2.5-63.5c16.6-53.7,79.2-80.2,81.8-81.3l3.8-1.6l2.2,3.6
	c1.5,2.5,37.7,60.9,21.1,114.6C4426.4,2520.9,4400.3,2531.6,4381.1,2531.6L4381.1,2531.6z"/>
<path class="st4" d="M4285.2,2292c0,0,61.6,30.7,74.3,84.3c12.8,53.6-5.3,79.6-33.6,86.7c-28.3,7-56.1-7.6-68.8-61.2
	C4244.4,2348.2,4285.2,2292,4285.2,2292L4285.2,2292z"/>
<path class="st9" d="M4286.8,2298.7c-8.4,13-35.1,58.8-24.8,101.9c9.2,38.4,27.1,58.9,51.1,58.9c3.8,0,7.7-0.5,11.7-1.5
	c13.7-3.4,23.4-11.2,28.8-23.1c6.4-14,6.8-33.4,1.1-57.4C4344.4,2334.4,4300.1,2306.3,4286.8,2298.7L4286.8,2298.7z M4313.4,2469.6
	c-19.7,0-47.8-10.7-61.2-66.7c-13.2-55.3,27.2-111.7,29-114.1l2.5-3.4l3.8,1.9c2.6,1.3,63.9,32.4,77,87.7c6.3,26.4,5.7,48-1.7,64.2
	c-6.7,14.7-19,24.6-35.6,28.7C4323.5,2468.8,4318.8,2469.6,4313.4,2469.6L4313.4,2469.6z"/>
<path class="st3" d="M3592.5,1511.5c-9.1-44.7,7.1-89.1,48.5-133.2C3644.1,1439.3,3627.9,1483.7,3592.5,1511.5L3592.5,1511.5z"/>
<path class="st3" d="M3721.5,1337.9c-8,51.1-29,84.9-63,101.5C3658.7,1400.8,3679.7,1366.9,3721.5,1337.9L3721.5,1337.9z"/>
<path class="st3" d="M3789.7,1329.1c-14,40.9-36.2,65.5-66.7,74C3728.8,1371.3,3751,1346.6,3789.7,1329.1L3789.7,1329.1z"/>
<path class="st3" d="M3755.3,1410.7c16.5-27.6,45.9-42.5,88.2-44.8C3816.1,1399,3786.7,1413.9,3755.3,1410.7L3755.3,1410.7z"/>
<path class="st3" d="M3593.6,1546.1c36.7-22,80.9-20.8,132.5,3.9C3673.2,1571.6,3629,1570.3,3593.6,1546.1L3593.6,1546.1z"/>
<path class="st3" d="M3758.1,1496.9c-46,18.8-84.5,17.7-115.3-3.4C3674.7,1474.4,3713.1,1475.5,3758.1,1496.9L3758.1,1496.9z"/>
<path class="st3" d="M3702.1,1450.7c31.9-19.2,70.4-18.1,115.3,3.4C3771.4,1472.9,3732.9,1471.7,3702.1,1450.7L3702.1,1450.7z"/>
<path class="st3" d="M3586.5,1541.7c-1.1,0-2.1-0.3-3.1-1c-2.5-1.7-3.1-5.2-1.4-7.7c58.2-86.5,150.4-120.8,154.3-122.2
	c2.8-1,5.9,0.5,6.9,3.3c1,2.9-0.5,6-3.3,7c-0.9,0.3-92.9,34.5-149.1,118C3589.9,1540.8,3588.2,1541.7,3586.5,1541.7L3586.5,1541.7z"
	/>
<path class="st9" d="M5225.5,1764.7c-47.6-33.7-71.2-90.1-70.9-169.2C5210.8,1650,5234.4,1706.4,5225.5,1764.7L5225.5,1764.7z"/>
<path class="st9" d="M5194.8,1484.2c37.2,55.2,47,106.1,29.6,152.8C5190.8,1600.5,5181,1549.6,5194.8,1484.2L5194.8,1484.2z"/>
<path class="st9" d="M5251.1,1413.7c22.6,51.1,23.3,94.5,2.1,130.3C5230.8,1508.9,5230.1,1465.4,5251.1,1413.7L5251.1,1413.7z"/>
<path class="st9" d="M5290.1,1521.7c-8.6-41,6-81.8,43.6-122.5C5336.9,1455.1,5322.4,1496,5290.1,1521.7L5290.1,1521.7z"/>
<path class="st9" d="M5256.7,1796.3c15.1-54.2,57.7-93.3,127.7-117.3C5353.7,1747.6,5311.1,1786.7,5256.7,1796.3L5256.7,1796.3z"/>
<path class="st9" d="M5368.1,1600c-26.8,59.7-63.8,93.7-111.2,102.1C5270.1,1655,5307.2,1620.9,5368.1,1600L5368.1,1600z"/>
<path class="st9" d="M5275.2,1607.7c13.2-47.1,50.2-81.2,111.2-102.1C5359.5,1565.3,5322.5,1599.3,5275.2,1607.7L5275.2,1607.7z"/>
<path class="st9" d="M5246.2,1798.6c-1,1-2.3,1.6-3.7,1.9c-3.8,0.6-7.4-2-8-5.9c-21-134.3,35.6-250.6,38.1-255.5
	c1.8-3.5,6-4.9,9.4-3.1c3.5,1.8,4.8,6.1,3.1,9.6c-0.6,1.2-57,117.2-36.8,246.8C5248.6,1794.7,5247.8,1797.1,5246.2,1798.6
	L5246.2,1798.6z"/>
<path class="st9" d="M3364.7,1582.3c0,33.3-26.4,60.2-58.9,60.2c-32.5,0-58.9-27-58.9-60.2c0-33.3,26.4-60.2,58.9-60.2
	C3338.3,1522.1,3364.7,1549,3364.7,1582.3L3364.7,1582.3z"/>
<path class="st13" d="M2927.2,1912.1c0,33.3-26.4,60.2-58.9,60.2c-32.5,0-58.9-27-58.9-60.2s26.4-60.2,58.9-60.2
	C2900.8,1851.9,2927.2,1878.9,2927.2,1912.1L2927.2,1912.1z"/>
<path class="st13" d="M4737.8,1495.1c0,33.3-26.4,60.2-58.9,60.2s-58.9-27-58.9-60.2c0-33.3,26.4-60.2,58.9-60.2
	S4737.8,1461.8,4737.8,1495.1L4737.8,1495.1z"/>
<path class="st9" d="M2646.4,2078.9c-17.5,0-31.8,14.6-31.8,32.5c0,17.9,14.3,32.5,31.8,32.5c17.5,0,31.8-14.6,31.8-32.5
	C2678.2,2093.4,2663.9,2078.9,2646.4,2078.9L2646.4,2078.9z M2646.4,2163c-27.9,0-50.5-23.2-50.5-51.6c0-28.5,22.7-51.6,50.5-51.6
	c27.9,0,50.5,23.2,50.5,51.6C2696.9,2139.8,2674.3,2163,2646.4,2163L2646.4,2163z"/>
<path class="st9" d="M6292.1,1879.6c-17.5,0-31.8,14.6-31.8,32.5c0,17.9,14.3,32.5,31.8,32.5c17.5,0,31.8-14.6,31.8-32.5
	C6323.9,1894.2,6309.7,1879.6,6292.1,1879.6L6292.1,1879.6z M6292.1,1963.8c-27.9,0-50.5-23.2-50.5-51.6c0-28.5,22.7-51.6,50.5-51.6
	c27.9,0,50.5,23.2,50.5,51.6C6342.7,1940.6,6320,1963.8,6292.1,1963.8L6292.1,1963.8z"/>
<path class="st13" d="M2614.6,1680.1c0,57.9-45.9,104.8-102.5,104.8c-56.6,0-102.5-46.9-102.5-104.8c0-57.9,45.9-104.8,102.5-104.8
	C2568.7,1575.4,2614.6,1622.3,2614.6,1680.1L2614.6,1680.1z"/>
<path class="st9" d="M3510.3,1315c0,24.1-19.1,43.7-42.7,43.7s-42.7-19.6-42.7-43.7c0-24.1,19.1-43.7,42.7-43.7
	S3510.3,1290.9,3510.3,1315L3510.3,1315z"/>
<path class="st9" d="M6207.9,1495.1c0,24.1-19.1,43.7-42.7,43.7s-42.7-19.6-42.7-43.7c0-24.1,19.1-43.7,42.7-43.7
	S6207.9,1471,6207.9,1495.1L6207.9,1495.1z"/>
<path class="st9" d="M4685.4,2418.2c0,41.5-32.9,75.1-73.5,75.1c-40.6,0-73.5-33.6-73.5-75.1c0-41.5,32.9-75.1,73.5-75.1
	C4652.5,2343.1,4685.4,2376.7,4685.4,2418.2L4685.4,2418.2z"/>
<path class="st9" d="M4802.5,2270.8c0,24.1-19.1,43.7-42.7,43.7c-23.6,0-42.7-19.6-42.7-43.7c0-24.1,19.1-43.7,42.7-43.7
	C4783.4,2227.2,4802.5,2246.7,4802.5,2270.8L4802.5,2270.8z"/>
<path class="st9" d="M3387.9,1015c-29,0-52.6,24.1-52.6,53.8c0,29.6,23.6,53.8,52.6,53.8s52.6-24.1,52.6-53.8
	C3440.5,1039.1,3416.9,1015,3387.9,1015L3387.9,1015z M3387.9,1149.9c-43.8,0-79.4-36.4-79.4-81.2c0-44.8,35.6-81.2,79.4-81.2
	s79.4,36.4,79.4,81.2C3467.3,1113.5,3431.7,1149.9,3387.9,1149.9L3387.9,1149.9z"/>
<path class="st9" d="M6152.3,1255.9c-22.5,0-40.7,18.7-40.7,41.6c0,22.9,18.3,41.6,40.7,41.6c22.5,0,40.7-18.7,40.7-41.6
	C6193,1274.6,6174.7,1255.9,6152.3,1255.9L6152.3,1255.9z M6152.3,1360.4c-33.9,0-61.5-28.2-61.5-62.8c0-34.6,27.6-62.8,61.5-62.8
	c33.9,0,61.5,28.2,61.5,62.8C6213.7,1332.2,6186.2,1360.4,6152.3,1360.4L6152.3,1360.4z"/>
<path class="st3" d="M5885.2,959.6c-22.5,0-40.7,18.7-40.7,41.6c0,22.9,18.3,41.6,40.7,41.6c22.5,0,40.7-18.7,40.7-41.6
	C5925.9,978.3,5907.6,959.6,5885.2,959.6L5885.2,959.6z M5885.2,1064.1c-33.9,0-61.5-28.2-61.5-62.8c0-34.7,27.6-62.8,61.5-62.8
	c33.9,0,61.5,28.2,61.5,62.8C5946.6,1035.9,5919.1,1064.1,5885.2,1064.1L5885.2,1064.1z"/>
<path class="st3" d="M5557.8,1395.5c-22.5,0-40.7,18.7-40.7,41.6c0,22.9,18.3,41.6,40.7,41.6c22.4,0,40.7-18.7,40.7-41.6
	C5598.5,1414.1,5580.3,1395.5,5557.8,1395.5L5557.8,1395.5z M5557.8,1499.9c-33.9,0-61.5-28.2-61.5-62.8c0-34.7,27.6-62.8,61.5-62.8
	c33.9,0,61.5,28.2,61.5,62.8C5619.3,1471.7,5591.7,1499.9,5557.8,1499.9L5557.8,1499.9z"/>
<path class="st3" d="M3884.5,1630.5c-29.3,0-53.1,24.4-53.1,54.3c0,29.9,23.8,54.3,53.1,54.3c29.3,0,53.1-24.4,53.1-54.3
	C3937.6,1654.9,3913.8,1630.5,3884.5,1630.5L3884.5,1630.5z M3884.5,1753.7c-37.2,0-67.4-30.9-67.4-68.9c0-38,30.2-68.9,67.4-68.9
	c37.2,0,67.4,30.9,67.4,68.9C3951.9,1722.8,3921.6,1753.7,3884.5,1753.7L3884.5,1753.7z"/>
<path class="st3" d="M4354.2,2036.4c-20.8,0-37.7,17.3-37.7,38.6c0,21.3,16.9,38.6,37.7,38.6s37.7-17.3,37.7-38.6
	C4392,2053.7,4375,2036.4,4354.2,2036.4L4354.2,2036.4z M4354.2,2131.8c-30.7,0-55.6-25.5-55.6-56.8c0-31.3,25-56.8,55.6-56.8
	c30.7,0,55.6,25.5,55.6,56.8C4409.8,2106.3,4384.9,2131.8,4354.2,2131.8L4354.2,2131.8z"/>
<path class="st13" d="M4910.9,1187.8c-31,0-56.3,25.8-56.3,57.5c0,31.7,25.2,57.5,56.3,57.5c31,0,56.3-25.8,56.3-57.5
	C4967.2,1213.6,4941.9,1187.8,4910.9,1187.8L4910.9,1187.8z M4910.9,1332.1c-46.8,0-84.9-38.9-84.9-86.8c0-47.8,38.1-86.8,84.9-86.8
	s84.9,38.9,84.9,86.8C4995.8,1293.1,4957.7,1332.1,4910.9,1332.1L4910.9,1332.1z"/>
<path class="st3" d="M4501.7,2760c-6.8,18.1-27.1,27-45.2,19.9c-18.1-7.1-27.2-27.6-20.4-45.8c6.8-18.1,27.1-27,45.2-19.9
	C4499.4,2721.4,4508.6,2741.9,4501.7,2760L4501.7,2760z"/>
<path class="st13" d="M2585.7,1350.8c-6.8,18.1-27.1,27-45.2,19.9c-18.1-7.1-27.2-27.6-20.4-45.8c6.8-18.1,27.1-27,45.2-19.9
	C2583.4,1312.2,2592.5,1332.7,2585.7,1350.8L2585.7,1350.8z"/>
<path class="st13" d="M2219.9,1050.1c-7.1,0-14.2,1.5-20.9,4.4c-12.7,5.6-22.5,15.9-27.4,28.9c-4.9,13-4.5,27.3,1.3,40.2
	c5.8,13,16.2,23,29.4,28.2c13.2,5.2,27.5,5,40.4-0.7c12.7-5.6,22.5-15.9,27.4-28.9c4.9-13,4.5-27.3-1.3-40.2
	c-5.8-13-16.2-23-29.4-28.2C2233.1,1051.4,2226.5,1050.1,2219.9,1050.1L2219.9,1050.1z M2221.8,1183.2c-9.8,0-19.7-1.9-29.2-5.6
	c-19.8-7.8-35.5-22.9-44.3-42.5c-8.8-19.7-9.4-41.6-1.9-61.6c7.6-20,22.4-35.7,41.9-44.3c19.3-8.5,40.9-8.9,60.7-1.1
	c19.8,7.8,35.5,22.9,44.3,42.5c8.8,19.7,9.4,41.6,1.9,61.6c-7.6,20-22.4,35.7-41.9,44.3C2243.3,1181,2232.5,1183.2,2221.8,1183.2
	L2221.8,1183.2z"/>
<path class="st9" d="M4533.1,2857c4.8,10.9,0.1,23.6-10.7,28.3c-10.8,4.7-23.4-0.3-28.3-11.2c-4.8-10.9-0.1-23.6,10.7-28.3
	C4515.6,2841.1,4528.3,2846.1,4533.1,2857L4533.1,2857z"/>
<path class="st3" d="M4577.7,2598.4c-13.9,0-27.5,7.9-34.5,21.6c-4.8,9.4-5.8,20.2-2.8,30.2c3,10,9.6,18.2,18.6,22.9
	c18.6,9.9,41.7,2.1,51.6-17.3c4.8-9.4,5.8-20.2,2.8-30.2c-3-10-9.6-18.2-18.5-22.9C4589.3,2599.7,4583.5,2598.4,4577.7,2598.4
	L4577.7,2598.4z M4576,2688.3c-7.5,0-15-1.8-22-5.5c-11.5-6.1-20-16.6-23.8-29.4c-3.8-12.8-2.6-26.4,3.5-38.4
	c12.6-24.7,42.2-34.6,65.9-22c11.5,6.1,20,16.6,23.8,29.4c3.8,12.8,2.6,26.4-3.5,38.4C4611.1,2678.2,4593.8,2688.3,4576,2688.3
	L4576,2688.3z"/>
<rect x="1730.1" y="2508.6" width="468.9" height="113.1"/>
<rect x="1730.1" y="2621.6" class="st14" width="468.9" height="107"/>
<rect x="1730.1" y="2728.7" class="st15" width="468.9" height="106.4"/>
<rect x="6736.2" y="2494.1" class="st16" width="201.2" height="167.3"/>
<rect x="6736.2" y="2661.5" class="st14" width="468.9" height="159.2"/>
<polygon class="st1" points="6865.1,2621.8 6834.3,2605.9 6803.8,2622.3 6809.4,2588.1 6784.5,2564.1 6818.7,2558.9 6833.8,2527.8 
	6849.3,2558.7 6883.6,2563.4 6859,2587.8 "/>
</svg>
